<?xml version="1.0" standalone="no"?>
<!DOCTYPE svg PUBLIC "-//W3C//DTD SVG 20010904//EN"
 "http://www.w3.org/TR/2001/REC-SVG-20010904/DTD/svg10.dtd">
<svg version="1.0" xmlns="http://www.w3.org/2000/svg"
 width="926.000000pt" height="908.000000pt" viewBox="0 0 926.000000 908.000000"
 preserveAspectRatio="xMidYMid meet">

<g transform="translate(0.000000,908.000000) scale(0.100000,-0.100000)"
fill="#000000" stroke="none">
<path d="M0 4540 l0 -4540 4630 0 4630 0 0 4540 0 4540 -2160 0 c-1433 0
-2160 -3 -2160 -10 0 -5 7 -10 15 -10 12 0 13 -4 5 -19 -17 -33 -12 -40 38
-47 l47 -7 -48 -20 c-44 -18 -48 -23 -43 -47 2 -15 1 -31 -5 -37 -6 -6 0 -22
16 -43 31 -42 16 -51 -26 -16 -40 34 -69 34 -69 1 0 -26 -15 -34 -23 -12 -7
20 -18 1 -24 -42 -7 -54 -19 -52 -26 5 -6 57 -20 73 -48 56 -16 -10 -22 -10
-35 3 -15 14 -20 12 -56 -21 -22 -19 -43 -32 -46 -28 -4 4 -1 9 6 11 6 3 12
10 12 16 0 7 8 22 18 35 12 15 16 35 14 62 -3 33 -9 40 -34 49 -17 6 -40 11
-50 11 -11 0 -16 5 -13 10 3 6 17 10 30 10 13 0 27 5 30 11 4 6 14 8 22 5 12
-5 14 -1 11 19 -3 14 -1 28 3 31 5 3 9 9 9 15 0 5 -883 9 -2335 9 l-2335 0 0
-4540z m7000 4444 c10 -24 14 -26 50 -21 44 6 45 5 30 -24 -9 -15 -6 -24 12
-42 l24 -24 -22 -16 c-15 -11 -20 -23 -17 -41 4 -18 1 -26 -9 -26 -23 0 -78
-30 -78 -43 -1 -7 -8 1 -16 16 -14 26 -19 28 -56 22 l-41 -7 6 30 c7 32 -11
56 -48 64 -16 4 -12 7 15 15 32 9 35 12 33 46 -2 35 -1 36 27 30 23 -4 30 -2
30 10 0 10 6 14 15 11 8 -4 17 1 21 10 8 22 13 20 24 -10z m-4998 -81 c30 4
37 2 29 -6 -18 -18 -13 -47 11 -67 l22 -17 -22 -12 c-26 -14 -28 -38 -5 -70 9
-13 12 -22 7 -20 -5 3 -22 11 -38 19 -27 13 -29 13 -48 -13 -23 -32 -34 -34
-43 -7 -5 16 -15 20 -47 20 -39 0 -40 1 -36 31 4 22 0 33 -14 40 -24 13 -23
25 3 32 18 5 20 10 14 38 -7 30 -6 31 18 27 16 -3 28 0 31 8 3 8 12 14 20 14
7 0 17 8 21 18 6 14 9 13 22 -12 14 -26 19 -28 55 -23z m2081 -5 c17 -12 40
-32 49 -43 35 -42 67 -162 93 -355 9 -63 25 -146 35 -185 26 -95 69 -244 81
-275 5 -14 12 -33 15 -43 31 -87 162 -308 241 -405 243 -300 352 -465 431
-652 91 -215 119 -380 94 -545 -6 -38 -10 -71 -8 -73 3 -2 16 4 29 13 24 15
25 20 21 83 -7 87 7 113 64 127 33 8 40 13 30 23 -20 20 8 37 62 37 68 0 100
-30 100 -96 l0 -48 -32 5 c-35 6 -80 -17 -65 -33 5 -4 13 0 18 10 16 27 36 20
41 -15 8 -54 -55 -98 -141 -98 -19 0 -32 -9 -45 -31 -10 -17 -15 -33 -12 -36
3 -3 34 8 68 25 260 127 576 119 1168 -28 617 -154 725 -173 1005 -174 116 -1
263 4 329 11 129 12 233 4 273 -23 13 -8 35 -34 50 -57 22 -35 27 -53 27 -112
1 -139 -70 -219 -339 -387 -49 -30 -106 -63 -125 -73 -31 -15 -139 -81 -306
-184 -52 -32 -205 -174 -235 -217 -164 -242 -215 -303 -330 -401 -116 -97
-179 -136 -287 -178 -125 -48 -256 -75 -368 -75 -55 0 -95 -5 -102 -12 -9 -9
-16 -8 -29 4 -10 9 -47 24 -83 33 -85 22 -182 55 -194 66 -6 5 -16 9 -23 9
-11 0 -12 -18 -7 -87 5 -69 2 -101 -11 -148 -16 -54 -78 -182 -96 -195 -3 -3
-14 -20 -23 -37 -25 -50 -128 -154 -190 -193 -31 -19 -56 -41 -56 -47 0 -7 -9
-22 -21 -34 -19 -19 -22 -19 -43 -6 -29 20 -56 7 -37 -17 19 -22 6 -48 -21
-44 -15 2 -24 11 -26 25 -3 21 -6 21 -100 16 -65 -4 -101 -10 -108 -19 -16
-19 -31 -17 -37 5 -2 11 -16 21 -33 24 -16 2 -112 23 -214 45 -102 22 -234 46
-295 53 -60 7 -122 18 -137 26 -57 28 -108 135 -108 225 0 76 32 183 90 298
142 282 160 323 195 430 15 47 40 110 55 140 15 30 39 91 54 135 15 44 31 89
36 100 5 11 20 54 33 95 13 41 41 121 62 178 37 100 40 142 6 92 -58 -86 -372
-429 -415 -452 -12 -7 -22 -6 -28 0 -19 19 88 191 298 480 29 39 10 34 -52
-16 -33 -26 -82 -63 -109 -81 -48 -34 -225 -163 -330 -242 -27 -21 -59 -46
-70 -56 -11 -10 -42 -37 -70 -59 -81 -65 -113 -93 -224 -200 -184 -177 -214
-201 -283 -235 -37 -18 -68 -36 -68 -40 0 -4 14 -12 30 -18 40 -13 38 -26 -7
-37 l-37 -9 80 -79 c72 -72 76 -78 49 -73 -16 2 -55 15 -85 27 -30 12 -65 24
-78 27 -22 5 -23 3 -17 -31 8 -42 -3 -46 -46 -15 -34 24 -49 18 -49 -21 0 -54
-9 -62 -36 -31 -13 16 -24 34 -24 39 0 24 -21 21 -32 -3 -16 -36 -52 -31 -56
8 -3 28 -4 28 -30 11 -15 -9 -35 -26 -44 -38 -13 -17 -20 -18 -29 -9 -10 10
-10 18 -1 38 7 14 12 35 12 46 0 19 -4 20 -40 14 -47 -8 -50 2 -18 46 19 26
20 31 8 39 -8 5 -29 10 -47 10 -39 0 -78 -44 -126 -140 l-32 -65 0 -210 c0
-207 0 -211 -27 -267 -29 -62 -97 -142 -139 -164 -33 -16 -82 -18 -110 -4 -22
12 -49 71 -49 106 0 35 -37 125 -64 156 -35 39 -136 86 -136 64 0 -3 13 -24
29 -48 44 -65 135 -261 172 -368 24 -72 33 -118 37 -189 6 -114 -7 -159 -59
-206 -46 -42 -74 -49 -145 -42 -50 5 -56 4 -64 -16 -19 -44 -73 -87 -109 -87
-33 0 -33 -16 -1 -68 35 -58 37 -80 9 -116 -16 -20 -29 -26 -57 -26 -46 1 -50
4 -146 124 -99 124 -216 248 -230 243 -10 -3 -11 -7 -51 -154 -33 -121 -33
-129 7 -137 82 -15 188 -94 251 -185 26 -38 31 -56 35 -121 4 -62 1 -83 -17
-120 -29 -60 -39 -73 -85 -104 -34 -23 -49 -26 -115 -26 -42 1 -86 6 -98 13
-66 37 -139 134 -157 210 -9 38 -23 34 -36 -13 -6 -21 -15 -42 -20 -45 -22
-14 -5 -42 83 -139 199 -217 253 -322 197 -381 -68 -72 -180 -3 -492 302 -190
186 -238 228 -238 208 0 -4 54 -92 125 -205 33 -52 56 -93 120 -215 32 -60 71
-132 86 -160 79 -143 127 -245 136 -293 27 -140 -66 -251 -192 -228 -48 9
-126 74 -153 128 -29 60 -30 140 -2 168 47 47 122 9 135 -68 7 -43 41 -80 58
-63 38 38 -96 302 -438 866 -206 340 -225 388 -169 440 46 43 95 27 174 -55 3
-3 61 -55 130 -115 69 -60 145 -128 170 -152 24 -23 46 -40 48 -38 5 4 -9 22
-151 200 -120 149 -194 269 -315 510 -77 154 -92 200 -92 284 0 153 58 241
160 241 75 0 143 -44 222 -143 53 -68 50 -135 -7 -157 -41 -16 -79 6 -119 66
-33 48 -78 85 -90 73 -17 -17 -22 -90 -9 -140 18 -71 169 -379 238 -486 73
-112 243 -323 260 -323 7 0 19 17 25 37 23 71 93 238 106 250 7 7 24 17 37 22
22 9 28 22 47 108 55 244 73 287 138 318 24 11 42 27 42 36 0 31 40 69 71 69
43 0 64 -14 101 -68 42 -62 156 -180 191 -198 43 -23 67 -10 66 34 0 20 -8 49
-17 64 -9 15 -39 62 -66 105 -54 85 -62 128 -31 163 20 22 73 27 106 9 24 -13
101 -129 130 -196 26 -60 56 -93 85 -93 53 0 58 82 13 225 -40 127 -92 233
-177 357 -124 182 -131 202 -91 252 19 25 25 26 114 26 197 0 339 -83 401
-234 11 -25 24 -46 30 -46 20 0 44 78 44 143 0 57 -30 171 -60 227 -9 18 -79
79 -189 168 -37 30 -41 38 -41 77 0 34 5 47 22 59 52 36 123 11 213 -76 32
-32 62 -58 65 -58 13 0 109 219 114 260 5 48 40 90 76 90 13 0 17 5 13 20 -4
16 0 20 19 20 13 0 29 -5 35 -11 16 -16 112 -39 119 -28 3 5 3 23 -1 39 -8 34
4 39 23 10 14 -23 32 -26 32 -6 0 27 -165 332 -216 401 -64 87 -93 297 -59
437 27 112 86 217 188 335 25 29 47 56 49 60 7 17 97 72 158 96 36 14 88 29
116 32 80 11 85 18 43 62 -77 81 -180 262 -215 378 -21 72 -39 96 -31 43 3
-21 2 -38 -3 -38 -5 0 -10 -7 -12 -17 -2 -12 -7 -8 -17 13 -39 82 -46 94 -56
94 -20 0 -34 -16 -50 -53 -8 -20 -19 -37 -24 -37 -5 0 -12 25 -16 55 -7 62
-19 68 -56 29 -13 -14 -36 -32 -51 -40 l-28 -15 0 39 c0 22 5 53 11 71 12 34
8 48 -12 35 -18 -11 -79 -14 -79 -4 0 5 9 24 20 42 30 50 26 57 -37 60 -60 3
-83 23 -39 34 13 3 32 14 42 25 9 10 23 19 31 19 7 0 13 7 13 15 0 8 -6 15
-14 15 -8 0 -24 8 -36 18 l-21 17 20 27 c30 37 27 50 -24 97 -26 24 -45 50
-45 62 0 19 4 21 32 15 17 -3 44 -12 60 -20 15 -8 41 -17 57 -21 29 -6 30 -5
33 34 l3 39 39 -19 c55 -27 66 -25 66 14 0 38 10 77 19 77 3 0 19 -21 34 -46
31 -51 54 -55 75 -11 18 37 38 34 46 -8 4 -19 11 -37 16 -40 16 -10 55 40 99
124 50 96 135 216 210 296 122 131 193 275 267 540 64 232 89 309 137 425 52
126 102 186 187 225 51 23 160 14 203 -17z m1087 -523 c0 -8 -7 -15 -15 -15
-8 0 -15 7 -15 15 0 8 7 15 15 15 8 0 15 -7 15 -15z m75 -5 c0 -22 -29 -18
-33 3 -3 14 1 18 15 15 10 -2 18 -10 18 -18z m-145 -5 c0 -8 -7 -15 -15 -15
-8 0 -15 7 -15 15 0 8 7 15 15 15 8 0 15 -7 15 -15z m220 -10 c0 -8 -9 -15
-20 -15 -11 0 -20 7 -20 15 0 8 9 15 20 15 11 0 20 -7 20 -15z m-282 -13 c2
-7 -3 -12 -12 -12 -9 0 -16 7 -16 16 0 17 22 14 28 -4z m357 -13 c0 -7 -8 -15
-17 -17 -18 -3 -25 18 -11 32 10 10 28 1 28 -15z m-410 -19 c3 -5 -1 -10 -9
-10 -9 0 -16 5 -16 10 0 6 4 10 9 10 6 0 13 -4 16 -10z m482 -16 c8 -21 -13
-42 -28 -27 -13 13 -5 43 11 43 6 0 13 -7 17 -16z m-522 -24 c3 -5 -1 -10 -9
-10 -9 0 -16 5 -16 10 0 6 4 10 9 10 6 0 13 -4 16 -10z m593 -37 c5 -17 -26
-29 -40 -15 -6 6 -7 15 -3 22 9 14 37 9 43 -7z m-618 -13 c0 -5 -7 -10 -16
-10 -8 0 -12 5 -9 10 3 6 10 10 16 10 5 0 9 -4 9 -10z m-20 -50 c0 -5 -4 -10
-10 -10 -5 0 -10 5 -10 10 0 6 5 10 10 10 6 0 10 -4 10 -10z m690 -21 c0 -12
-7 -19 -19 -19 -26 0 -36 17 -21 35 15 18 40 8 40 -16z m38 -87 c3 -18 -1 -22
-22 -22 -19 0 -26 5 -26 18 0 39 43 43 48 4z m-718 14 c0 -3 -4 -8 -10 -11 -5
-3 -10 -1 -10 4 0 6 5 11 10 11 6 0 10 -2 10 -4z m170 -101 c31 -16 56 -79 45
-114 -8 -27 -49 -61 -80 -67 -56 -10 -75 -7 -75 11 0 9 -8 19 -17 22 -27 10
-33 23 -33 76 0 33 4 47 14 47 7 0 19 6 26 14 6 8 28 17 48 19 20 2 38 4 40 5
2 1 16 -5 32 -13z m568 -11 c4 -27 -26 -40 -46 -20 -13 13 -13 18 -2 31 18 21
44 15 48 -11z m-3 -95 c0 -17 -6 -24 -20 -24 -23 0 -33 34 -13 46 20 13 33 5
33 -22z m-2 -93 c9 -22 -19 -42 -37 -26 -19 15 -10 40 14 40 10 0 20 -6 23
-14z m-13 -102 c0 -19 -28 -30 -42 -16 -8 8 -8 15 1 26 14 17 41 10 41 -10z
m-20 -94 c0 -13 -7 -20 -18 -20 -24 0 -32 8 -25 26 8 22 43 17 43 -6z m-23
-76 c9 -23 -13 -40 -32 -24 -12 10 -13 16 -4 26 15 18 28 18 36 -2z m-17 -89
c0 -19 -20 -29 -32 -17 -15 15 -2 43 17 36 8 -3 15 -12 15 -19z m-24 -66 c10
-17 -13 -36 -27 -22 -12 12 -4 33 11 33 5 0 12 -5 16 -11z m-16 -85 c0 -9 -7
-14 -17 -12 -25 5 -28 28 -4 28 12 0 21 -6 21 -16z m1460 -57 c0 -13 10 -32
21 -43 21 -19 22 -19 36 4 21 31 40 28 48 -8 4 -16 9 -30 13 -30 3 0 24 17 45
38 l39 37 -4 -35 c-3 -19 -9 -44 -13 -54 -8 -18 -5 -19 33 -12 49 7 52 0 21
-50 l-21 -34 41 0 c48 0 57 -23 16 -42 -14 -6 -25 -17 -25 -23 0 -6 11 -17 25
-23 30 -14 32 -32 5 -39 -11 -3 -20 -11 -20 -19 0 -7 9 -18 20 -24 11 -6 20
-16 20 -23 0 -7 14 -23 31 -36 49 -36 8 -54 -47 -20 -38 23 -44 24 -44 4 0 -9
-7 -18 -15 -21 -12 -5 -13 -10 -4 -20 6 -8 9 -21 5 -29 -9 -24 -35 -17 -42 10
-11 44 -64 61 -64 21 0 -60 -30 -75 -50 -26 -15 37 -32 38 -55 4 -16 -25 -17
-25 -30 -7 -7 10 -14 27 -16 37 -3 17 -10 13 -49 -22 -56 -53 -70 -54 -66 -4
2 20 -1 40 -7 44 -7 4 -2 11 13 18 21 9 18 10 -22 6 -52 -4 -58 2 -29 28 10
10 21 26 24 36 4 16 -2 21 -35 27 -22 4 -41 12 -41 18 -1 5 15 18 36 29 43 23
47 38 12 54 -30 14 -32 28 -4 37 20 7 19 8 -7 43 -16 21 -36 44 -46 53 -14 12
-16 25 -12 50 8 42 21 59 46 59 24 0 35 -27 19 -52 -16 -25 -8 -35 31 -40 18
-3 41 -8 51 -13 13 -5 16 -4 11 9 -3 8 -14 18 -24 21 -24 7 -32 32 -20 55 12
22 49 16 57 -9 3 -9 7 -23 10 -31 4 -12 6 -12 14 3 6 10 21 22 35 27 15 6 22
15 18 25 -3 8 -1 15 5 15 6 0 11 -11 11 -23z m-1488 -19 c-9 -9 -15 -9 -24 0
-10 10 -10 15 2 22 9 6 19 5 24 0 7 -7 6 -14 -2 -22z m1186 20 c15 -15 16 -54
2 -63 -29 -18 -74 34 -55 64 8 15 38 14 53 -1z m-92 -52 c-7 -28 -25 -33 -44
-14 -19 19 -14 38 11 47 29 11 41 -1 33 -33z m-98 -29 c-4 -27 -19 -31 -43
-12 -19 15 -19 15 -2 29 24 19 49 9 45 -17z m-1013 14 c7 -12 -12 -24 -25 -16
-11 7 -4 25 10 25 5 0 11 -4 15 -9z m923 -52 c3 -17 -23 -33 -39 -23 -5 3 -9
14 -9 25 0 15 6 20 22 17 13 -2 24 -10 26 -19z m-940 -17 c2 -7 -3 -12 -12
-12 -9 0 -16 7 -16 16 0 17 22 14 28 -4z m852 -22 c0 -13 -7 -20 -19 -20 -22
0 -35 15 -26 30 12 19 45 11 45 -10z m-872 -38 c2 -7 -3 -12 -12 -12 -9 0 -16
7 -16 16 0 17 22 14 28 -4z m792 -2 c0 -13 -7 -20 -20 -20 -13 0 -20 7 -20 20
0 13 7 20 20 20 13 0 20 -7 20 -20z m-80 -40 c0 -21 -24 -28 -35 -10 -8 14 3
30 21 30 8 0 14 -9 14 -20z m-730 -10 c0 -5 -4 -10 -10 -10 -5 0 -10 5 -10 10
0 6 5 10 10 10 6 0 10 -4 10 -10z m660 -24 c0 -21 -21 -31 -30 -15 -5 7 -6 17
-4 21 9 14 34 9 34 -6z m-685 -26 c3 -5 1 -10 -4 -10 -6 0 -11 5 -11 10 0 6 2
10 4 10 3 0 8 -4 11 -10z m623 -12 c-7 -19 -38 -22 -38 -4 0 10 9 16 21 16 12
0 19 -5 17 -12z m-71 -33 c7 -20 -2 -29 -21 -22 -9 4 -13 13 -10 22 8 19 23
19 31 0z m-562 -5 c3 -5 -1 -10 -10 -10 -9 0 -13 5 -10 10 3 6 8 10 10 10 2 0
7 -4 10 -10z m505 -35 c0 -8 -7 -15 -15 -15 -16 0 -20 12 -8 23 11 12 23 8 23
-8z m-520 -15 c0 -5 -5 -10 -11 -10 -5 0 -7 5 -4 10 3 6 8 10 11 10 2 0 4 -4
4 -10z m458 -21 c-2 -6 -8 -10 -13 -10 -5 0 -11 4 -13 10 -2 6 4 11 13 11 9 0
15 -5 13 -11z m-48 -35 c0 -17 -22 -14 -28 4 -2 7 3 12 12 12 9 0 16 -7 16
-16z m-50 -30 c0 -17 -22 -14 -28 4 -2 7 3 12 12 12 9 0 16 -7 16 -16z m1040
12 c0 -3 -4 -8 -10 -11 -5 -3 -10 -1 -10 4 0 6 5 11 10 11 6 0 10 -2 10 -4z
m42 -24 c-19 -6 -14 -30 7 -37 32 -10 37 -125 5 -125 -8 0 -14 -9 -14 -20 0
-15 -7 -20 -28 -20 -15 0 -32 -4 -38 -10 -11 -11 -54 -2 -54 11 0 5 -6 9 -14
9 -22 0 -28 16 -35 86 -6 51 -4 64 7 64 8 0 24 8 37 18 15 12 37 18 63 16 28
-1 42 3 46 13 3 8 11 11 18 7 9 -6 9 -9 0 -12z m-1132 -12 c0 -5 -4 -10 -10
-10 -5 0 -10 5 -10 10 0 6 5 10 10 10 6 0 10 -4 10 -10z m-45 -30 c3 -5 -1
-10 -9 -10 -9 0 -16 5 -16 10 0 6 4 10 9 10 6 0 13 -4 16 -10z m1543 -13 c2
-10 -3 -17 -12 -17 -10 0 -16 9 -16 21 0 24 23 21 28 -4z m-1588 -17 c0 -5 -2
-10 -4 -10 -3 0 -8 5 -11 10 -3 6 -1 10 4 10 6 0 11 -4 11 -10z m-40 -20 c0
-5 -4 -10 -10 -10 -5 0 -10 5 -10 10 0 6 5 10 10 10 6 0 10 -4 10 -10z m1596
-1 c7 -12 -15 -31 -28 -23 -4 3 -8 12 -8 20 0 17 26 19 36 3z m-38 -46 c-4
-22 -22 -20 -26 1 -2 10 3 16 13 16 10 0 15 -7 13 -17z m-206 -33 c10 0 18 -4
18 -9 0 -15 -18 -23 -25 -11 -3 5 -15 10 -26 10 -19 0 -25 11 -12 23 4 4 11 3
17 -3 5 -5 18 -10 28 -10z m158 5 c0 -8 -7 -15 -15 -15 -16 0 -20 12 -8 23 11
12 23 8 23 -8z m-100 -20 c0 -8 -4 -15 -10 -15 -5 0 -10 7 -10 15 0 8 5 15 10
15 6 0 10 -7 10 -15z m50 0 c0 -8 -4 -15 -10 -15 -5 0 -10 7 -10 15 0 8 5 15
10 15 6 0 10 -7 10 -15z m-4995 -567 c9 -38 12 -41 51 -44 28 -3 46 1 54 11 7
8 17 15 23 15 6 0 19 7 29 17 33 29 19 -2 -17 -37 -38 -38 -43 -50 -20 -50 11
0 13 -7 9 -29 -6 -31 -12 -28 96 -49 l35 -6 -50 -7 c-27 -4 -59 -9 -70 -12
-22 -5 -22 -26 0 -43 20 -15 7 -26 -16 -13 -27 14 -24 -4 7 -41 35 -41 25 -48
-25 -15 -45 30 -73 28 -64 -4 6 -25 -12 -28 -26 -4 -8 15 -10 14 -16 -12 -4
-17 -8 -34 -10 -40 -1 -5 -10 9 -20 33 -15 37 -45 59 -45 32 0 -5 -7 -10 -15
-10 -9 0 -12 6 -8 16 5 13 -2 12 -37 -6 -48 -25 -59 -21 -36 12 19 27 21 53 4
41 -7 -4 -5 5 5 20 21 32 19 33 -63 45 l-55 8 63 14 c63 14 77 30 45 49 -16 9
-16 10 5 11 12 0 22 2 22 5 0 3 -17 28 -37 57 -36 50 -32 55 12 18 11 -9 32
-24 48 -33 27 -17 27 -17 37 9 8 21 13 24 24 15 17 -14 22 -8 31 42 9 44 16
41 30 -15z m6043 -892 c18 5 22 2 22 -19 0 -14 7 -32 15 -40 12 -13 12 -17 -5
-32 -15 -14 -17 -22 -9 -38 10 -18 9 -19 -14 -13 -21 5 -26 2 -29 -14 -3 -19
-5 -19 -33 -4 -19 10 -42 13 -63 9 -31 -6 -33 -5 -23 14 16 30 14 39 -15 54
l-27 14 25 6 c19 5 26 13 26 32 0 14 -4 25 -9 25 -5 0 -9 5 -9 10 0 7 6 7 19
1 20 -11 71 6 71 24 0 6 8 0 18 -12 12 -16 23 -21 40 -17z m-3902 -321 c-26
-19 -42 -19 -26 0 7 8 20 15 29 15 13 -1 13 -3 -3 -15z m-79 -46 c-15 -11 -25
-25 -22 -29 3 -5 -11 -17 -31 -26 -20 -9 -41 -25 -47 -36 -7 -10 -20 -18 -29
-18 -11 0 -18 -8 -18 -20 0 -15 -7 -20 -27 -20 -20 0 -24 -3 -14 -9 19 -12 6
-28 -29 -36 -40 -9 -45 -20 -15 -39 14 -9 25 -23 25 -30 0 -22 -27 -38 -51
-31 -17 6 -20 12 -15 36 3 16 4 29 1 29 -6 0 -35 -62 -35 -78 0 -9 -7 -13 -20
-9 -28 7 -38 -12 -34 -71 3 -54 1 -58 -50 -100 -9 -7 -18 -25 -22 -40 -3 -15
-7 -37 -10 -49 -3 -16 -18 -27 -55 -40 -36 -13 -51 -24 -56 -41 -3 -13 -16
-28 -29 -32 -13 -5 -24 -14 -24 -20 0 -14 12 -12 38 6 12 8 28 14 35 11 6 -2
-5 -14 -26 -27 -45 -27 -67 -69 -42 -82 8 -5 14 -19 14 -31 -1 -17 -2 -18 -6
-4 -2 9 -9 17 -14 17 -14 0 -11 -38 4 -43 7 -3 4 -6 -7 -6 -17 -1 -18 -9 -14
-111 2 -67 8 -114 15 -121 10 -10 10 -16 1 -27 -9 -10 -9 -15 2 -22 8 -5 18
-6 22 -4 4 3 8 -2 8 -10 0 -9 -6 -15 -12 -13 -7 1 -14 -8 -16 -20 -4 -30 5
-29 30 2 11 14 24 22 29 19 6 -3 4 -11 -4 -17 -24 -19 -27 -62 -5 -76 10 -6
16 -16 13 -21 -3 -6 -2 -10 4 -10 5 0 14 -15 21 -33 6 -19 26 -52 45 -73 19
-21 33 -44 31 -51 -5 -12 48 -36 58 -26 11 12 17 -26 7 -45 -13 -25 -4 -34 20
-19 16 10 21 9 29 -3 7 -11 5 -16 -5 -18 -24 -5 -18 -17 33 -63 27 -24 51 -52
55 -61 3 -10 11 -18 16 -18 15 0 21 29 11 56 -6 14 -9 41 -7 60 2 34 3 35 36
29 31 -6 96 -45 76 -45 -5 0 2 -11 14 -24 17 -18 19 -26 10 -32 -9 -5 -6 -10
9 -15 12 -5 22 -15 22 -24 0 -8 5 -15 10 -15 6 0 10 -7 10 -15 0 -19 9 -19 50
1 98 49 155 92 158 118 3 25 25 36 37 17 3 -5 35 6 72 25 56 30 71 34 91 25
30 -14 18 -34 -16 -27 -36 8 -57 -6 -44 -29 17 -31 2 -53 -44 -67 -45 -13 -45
-13 -39 -51 8 -42 -6 -67 -37 -67 -16 0 -18 -5 -12 -35 4 -24 3 -35 -6 -35 -8
0 -10 -9 -6 -25 5 -19 2 -25 -10 -25 -12 0 -14 -5 -9 -17 5 -10 9 -29 9 -43 1
-14 4 -29 8 -35 3 -5 9 -25 13 -44 13 -61 45 -121 64 -121 13 0 20 -10 25 -30
6 -33 39 -42 50 -15 3 8 11 15 18 15 7 0 18 10 23 23 14 31 60 35 75 6 26 -47
-22 -87 -69 -57 -28 17 -54 3 -45 -24 8 -30 16 -36 21 -20 8 22 22 12 20 -15
-1 -19 3 -28 16 -31 12 -2 17 3 17 17 0 11 5 23 10 26 16 10 81 -18 76 -32 -3
-7 -1 -13 3 -13 5 0 11 4 13 9 2 4 14 11 28 15 24 7 24 6 6 -8 -17 -14 -18
-16 -3 -16 9 0 17 -5 17 -11 0 -5 5 -7 10 -4 6 4 8 15 5 25 -4 13 1 20 22 25
15 5 35 7 42 6 13 -2 13 0 2 13 -11 13 -11 17 3 22 9 3 16 11 16 16 0 6 -7 7
-15 4 -8 -3 -22 -9 -30 -12 -9 -4 -15 -1 -15 9 0 8 -7 17 -15 21 -8 3 -15 17
-15 31 0 20 5 25 25 25 14 0 25 4 25 9 0 5 9 7 20 4 15 -4 20 -14 20 -38 0
-19 8 -39 20 -50 11 -10 20 -24 20 -32 0 -7 5 -13 10 -13 17 0 11 25 -11 43
-16 14 -19 25 -14 45 9 35 12 37 30 22 8 -7 21 -10 30 -7 23 10 48 -22 41 -54
-5 -24 -1 -29 27 -37 18 -5 48 -10 67 -11 56 -2 72 -10 65 -32 -5 -14 -3 -17
10 -13 9 4 25 -2 37 -12 21 -19 21 -19 16 9 -6 32 -4 33 21 8 18 -18 23 -18
87 -5 37 8 81 13 96 10 15 -2 30 0 33 4 3 5 12 7 20 3 8 -3 15 0 15 5 0 6 15
14 34 17 19 4 47 20 62 36 30 32 30 32 22 222 -2 37 0 67 3 67 4 0 12 -29 18
-65 13 -74 67 -245 82 -260 6 -6 12 -6 17 1 4 6 25 14 47 18 74 13 184 53 197
71 5 6 8 3 8 -7 0 -25 17 -22 23 3 4 15 11 20 22 15 9 -3 45 8 80 24 35 17 72
30 82 30 23 0 32 7 66 49 17 20 27 43 25 57 -2 12 7 36 20 53 20 28 25 30 45
20 12 -7 27 -19 33 -27 7 -10 13 -11 18 -4 3 6 2 13 -4 17 -17 11 -11 23 13
27 28 4 24 22 -6 23 -16 0 -25 9 -33 35 -10 31 -9 38 13 67 22 28 27 31 53 22
37 -13 44 -33 24 -70 -22 -44 -15 -74 18 -74 34 0 44 -11 28 -30 -9 -11 -17
-12 -31 -4 -25 13 -30 9 -64 -45 -16 -26 -33 -46 -38 -46 -5 0 -27 -15 -50
-34 -53 -43 -106 -69 -226 -113 -133 -48 -216 -74 -282 -87 -14 -3 -30 -16
-37 -30 -8 -19 -16 -22 -37 -18 -20 3 -26 1 -23 -9 2 -8 16 -53 31 -101 27
-84 30 -88 57 -88 32 0 46 -25 35 -60 -7 -23 -6 -24 32 -9 25 9 26 12 11 20
-12 7 -18 22 -18 44 0 28 -4 35 -19 35 -24 0 -33 13 -25 34 9 23 54 21 54 -3
0 -13 9 -20 30 -24 42 -9 53 -52 19 -78 -13 -10 -19 -19 -13 -19 5 0 15 5 21
11 6 6 30 13 53 15 39 4 80 32 80 55 0 15 52 23 60 9 8 -12 87 -23 102 -14 4
3 3 14 -3 26 -8 15 -8 19 0 14 6 -4 15 4 21 18 12 31 34 33 78 6 26 -16 37
-18 48 -9 8 6 25 8 39 5 24 -6 25 -4 25 33 0 30 5 43 20 51 26 14 57 5 71 -22
8 -15 14 -17 22 -8 9 9 6 16 -12 31 -27 22 -23 24 14 7 29 -13 33 -46 8 -55
-10 -4 -29 -15 -42 -25 -13 -10 -36 -18 -52 -18 -15 0 -31 -4 -34 -10 -10 -15
-113 -60 -185 -80 -36 -10 -90 -26 -120 -35 -102 -32 -235 -64 -262 -65 -49 0
-51 -26 -12 -141 32 -95 78 -237 170 -520 19 -59 34 -113 34 -120 0 -8 9 -25
20 -39 11 -14 20 -36 20 -49 0 -23 1 -24 13 -7 19 26 67 9 86 -29 22 -46 78
-97 113 -104 31 -6 33 -10 38 -58 3 -27 10 -57 16 -64 38 -52 49 -195 19 -264
-25 -62 -90 -140 -163 -199 l-69 -54 -12 -89 c-7 -48 -22 -136 -34 -195 l-21
-108 -856 0 c-481 0 -849 4 -841 9 10 6 12 25 8 70 -2 34 -8 65 -12 69 -4 4
-6 0 -3 -8 6 -20 -37 -53 -61 -45 -22 7 -34 42 -21 64 22 40 -20 63 -159 86
-129 22 -338 21 -253 -2 14 -3 22 -13 22 -27 0 -40 79 -139 155 -194 l30 -21
-336 -1 c-384 0 -375 -2 -476 93 -31 29 -69 64 -85 80 -17 15 -37 26 -46 25
-16 -3 -18 2 -21 50 -1 18 -7 22 -37 22 -36 0 -36 0 -30 -34 4 -22 2 -37 -5
-42 -16 -10 -49 32 -49 61 0 20 -6 25 -46 31 -25 3 -64 4 -87 1 -26 -4 -47 -1
-57 7 -8 7 -58 20 -110 30 -264 51 -439 152 -506 291 -26 54 -29 70 -29 160 0
83 5 113 27 177 43 121 134 265 221 349 20 20 37 43 37 51 0 8 11 25 25 38 30
28 32 16 5 -25 -11 -16 -20 -36 -20 -43 0 -8 -10 -22 -22 -33 -13 -10 -17 -18
-10 -19 6 0 12 -5 12 -11 0 -5 -5 -7 -10 -4 -16 10 -39 -13 -33 -34 3 -11 -4
-28 -16 -40 -19 -19 -22 -38 -28 -144 -4 -67 -6 -158 -5 -201 3 -77 4 -80 39
-112 20 -19 45 -36 55 -40 10 -3 18 -14 18 -25 0 -16 20 -30 86 -60 48 -22 99
-43 115 -46 16 -3 29 -9 29 -14 0 -16 50 -10 57 7 3 8 12 13 19 10 8 -3 21 5
29 18 25 37 52 39 76 4 21 -29 22 -29 35 -9 9 12 28 21 52 23 28 2 38 8 40 23
2 13 18 26 45 38 49 20 98 59 183 145 35 34 66 62 71 62 4 0 14 9 21 20 8 13
8 20 1 20 -6 0 -9 14 -7 33 2 26 8 33 30 35 18 2 31 -4 42 -20 l16 -22 0 24
c0 15 9 31 21 38 16 10 18 17 10 25 -17 17 -13 31 4 17 12 -10 15 -10 15 1 0
8 -9 20 -21 27 -16 10 -18 16 -9 26 13 16 50 28 50 16 0 -4 11 -10 24 -12 24
-5 65 17 53 28 -4 4 -13 1 -22 -6 -11 -9 -15 -9 -15 -1 0 26 20 50 37 44 13
-5 15 -2 9 12 -5 13 1 25 20 42 15 13 33 23 40 23 7 0 19 10 25 23 7 12 11 22
9 22 -8 0 41 82 59 99 20 18 20 20 4 45 -78 118 -192 357 -193 402 0 8 -13 25
-30 37 -36 27 -38 46 -5 68 18 11 26 28 30 62 17 130 84 286 180 421 53 75
198 239 242 274 13 10 23 23 23 29 0 11 -39 57 -135 158 -146 155 -275 331
-352 485 -68 135 -77 173 -70 298 4 83 11 118 37 187 18 47 35 100 37 118 3
19 11 36 18 39 7 2 26 23 41 46 50 75 199 272 208 276 4 2 52 42 105 90 53 48
115 100 136 116 22 17 46 35 55 42 92 74 188 142 200 142 9 0 4 -8 -13 -20z
m37 -151 c16 -27 -14 -54 -43 -39 -21 11 -28 41 -14 55 12 12 45 2 57 -16z
m-74 -54 c0 -28 -30 -33 -51 -8 -11 14 -10 18 5 29 24 18 46 8 46 -21z m78
-56 c-2 -15 -10 -23 -23 -23 -13 0 -21 8 -23 23 -3 18 1 22 23 22 22 0 26 -4
23 -22z m-2817 -64 c49 -48 61 -55 74 -44 8 7 15 17 15 23 0 45 91 64 126 26
18 -20 20 -44 12 -129 -3 -29 23 -44 122 -72 72 -20 100 -45 100 -89 0 -35
-31 -69 -62 -69 -40 0 -51 -14 -28 -35 31 -28 27 -88 -7 -115 -39 -30 -78 -20
-127 32 -27 28 -41 37 -44 28 -10 -28 -52 -60 -79 -60 -45 0 -73 26 -73 65 0
20 -8 42 -19 52 -39 38 -44 61 -25 114 l18 50 -87 85 c-98 95 -108 124 -62
169 41 42 77 34 146 -31z m2604 -19 c0 -11 -7 -21 -16 -23 -18 -3 -33 23 -23
39 10 17 39 5 39 -16z m1904 -5 c12 0 15 -16 3 -23 -12 -8 -54 32 -46 44 5 9
10 7 19 -4 7 -10 17 -17 24 -17z m121 -26 c0 -16 -16 -19 -25 -4 -8 13 4 32
16 25 5 -4 9 -13 9 -21z m-2055 -65 c8 -12 -33 -59 -52 -59 -20 0 -16 21 9 47
24 25 34 28 43 12z m2231 -38 c-9 -14 -33 -14 -41 -1 -4 6 -1 18 6 26 11 13
14 13 27 0 8 -8 11 -19 8 -25z m-2129 -7 c-9 -9 -28 6 -21 18 4 6 10 6 17 -1
6 -6 8 -13 4 -17z m1828 16 c3 -5 1 -10 -4 -10 -6 0 -11 5 -11 10 0 6 2 10 4
10 3 0 8 -4 11 -10z m353 -56 c4 -27 -26 -40 -46 -20 -13 13 -13 18 -2 31 18
21 44 15 48 -11z m-98 -24 c0 -24 -26 -38 -42 -22 -16 16 -2 42 22 42 13 0 20
-7 20 -20z m1160 -117 c8 -46 17 -83 22 -83 4 0 15 11 24 25 9 14 20 25 23 25
4 0 14 -11 21 -25 7 -14 16 -25 20 -25 3 0 34 23 69 51 66 53 89 60 48 14 -55
-61 -63 -70 -80 -98 -17 -28 -17 -29 4 -34 18 -5 20 -11 16 -39 -6 -37 3 -44
63 -44 84 0 95 -25 14 -35 -63 -8 -88 -27 -78 -59 4 -11 11 -22 15 -24 21 -8
7 -24 -16 -18 -35 9 -31 -4 16 -64 22 -28 38 -54 35 -57 -3 -3 -29 10 -58 30
-38 27 -59 35 -76 31 -21 -6 -22 -10 -16 -50 7 -51 1 -56 -21 -14 -24 47 -41
38 -54 -30 -12 -58 -31 -74 -31 -25 0 13 -5 46 -12 74 l-11 50 -29 -17 c-28
-16 -30 -16 -42 1 -16 21 -39 22 -57 1 -8 -9 -30 -27 -50 -39 -20 -13 -43 -31
-52 -40 -34 -34 -15 2 23 45 60 66 63 74 38 100 -12 13 -17 25 -11 29 6 3 15
16 21 28 11 20 9 22 -58 37 -38 9 -76 16 -84 16 -9 0 -16 4 -16 9 0 9 18 13
123 27 26 3 47 10 47 15 0 4 -12 21 -27 36 l-28 27 28 10 c15 5 27 13 27 17 0
4 -18 30 -40 58 -22 28 -40 53 -40 56 0 13 27 2 64 -28 37 -29 87 -57 103 -57
3 0 3 29 0 65 -4 36 -4 65 -2 65 2 0 16 -20 31 -45 14 -25 30 -43 34 -40 5 3
12 27 15 53 13 105 17 118 25 97 4 -11 13 -57 20 -102z m-3882 87 c31 -26 19
-46 -13 -23 -23 17 -34 43 -17 43 4 -1 17 -9 30 -20z m322 -127 c0 -7 12 -18
26 -23 20 -8 25 -16 22 -36 -4 -39 -32 -53 -56 -31 -12 11 -18 26 -15 37 4 13
-1 19 -18 22 -30 4 -36 33 -13 59 16 18 18 18 36 3 10 -10 18 -23 18 -31z
m3670 37 c0 -5 -5 -10 -11 -10 -5 0 -7 5 -4 10 3 6 8 10 11 10 2 0 4 -4 4 -10z
m-1112 -81 c3 -28 -16 -43 -43 -33 -15 6 -21 45 -8 58 16 16 48 1 51 -25z
m-2609 -28 c13 -24 -8 -55 -34 -50 -28 6 -42 34 -26 53 18 22 48 20 60 -3z
m-559 -6 c20 -24 3 -55 -30 -55 -20 0 -31 6 -35 20 -8 25 10 50 35 50 10 0 23
-7 30 -15z m-192 -101 c4 -25 -20 -47 -42 -38 -16 6 -22 45 -9 58 14 14 48 1
51 -20z m3247 -39 c0 -27 -3 -30 -30 -30 -21 0 -31 5 -33 18 -6 33 6 49 35 45
24 -3 28 -8 28 -33z m-107 3 c7 -7 8 -17 1 -30 -18 -33 -66 -15 -54 21 7 23
34 28 53 9z m-81 -34 c3 -8 1 -20 -6 -27 -14 -14 -47 15 -37 32 10 16 36 13
43 -5z m-2157 -8 c6 -8 10 -25 8 -38 -6 -42 -78 -32 -78 11 0 37 46 55 70 27z
m308 -9 c2 -11 -3 -17 -17 -17 -25 0 -38 19 -20 31 19 12 33 6 37 -14z m337 7
c19 -20 16 -43 -7 -58 -38 -23 -78 35 -42 61 23 17 29 16 49 -3z m1830 -14 c0
-20 -6 -26 -26 -28 -19 -2 -28 2 -31 15 -8 30 2 44 31 41 20 -2 26 -8 26 -28z
m-510 -5 c0 -11 -7 -21 -16 -23 -18 -3 -33 23 -23 39 10 17 39 5 39 -16z
m-1865 -25 c19 -14 22 -22 13 -31 -8 -8 -17 -7 -37 7 -27 20 -34 44 -13 44 6
0 23 -9 37 -20z m2124 -16 c8 -21 -1 -34 -24 -34 -22 0 -33 23 -17 39 16 16
34 14 41 -5z m-1994 -15 c0 -24 -23 -21 -28 4 -2 10 3 17 12 17 10 0 16 -9 16
-21z m224 -15 c14 -36 -39 -59 -64 -29 -10 12 -10 18 0 30 17 20 56 19 64 -1z
m1545 -8 c10 -12 8 -17 -8 -25 -22 -12 -37 0 -27 24 7 19 20 19 35 1z m-2986
-38 c16 -24 -8 -51 -34 -37 -19 10 -25 39 -12 53 11 11 35 3 46 -16z m2635 0
c19 -19 14 -46 -10 -59 -13 -7 -26 -16 -29 -21 -11 -17 -27 46 -18 70 9 24 38
29 57 10z m-2554 -14 c21 -8 21 -40 0 -48 -21 -8 -34 1 -34 23 0 28 9 34 34
25z m1304 -22 c4 -25 -19 -30 -37 -9 -8 10 -7 17 1 25 17 17 32 10 36 -16z
m2201 14 c18 -21 -3 -56 -34 -56 -29 0 -39 14 -31 46 7 28 46 33 65 10z
m-2718 -6 c19 -11 25 -45 11 -66 -11 -16 -47 -23 -66 -12 -22 12 -21 64 2 77
22 13 29 13 53 1z m224 -10 c0 -7 -6 -15 -12 -17 -8 -3 -13 4 -13 17 0 13 5
20 13 18 6 -3 12 -11 12 -18z m1839 -18 c6 -11 -4 -24 -31 -39 -32 -18 -40 3
-11 27 25 21 34 24 42 12z m-2924 -28 c0 -20 -30 -30 -40 -13 -11 17 7 40 26
32 8 -3 14 -12 14 -19z m1438 -11 c3 -20 -1 -23 -27 -23 -27 0 -31 4 -31 26 0
22 4 25 28 22 19 -2 28 -9 30 -25z m-101 -31 c-3 -15 -2 -34 3 -42 11 -18 -6
-40 -30 -40 -23 0 -28 15 -22 68 4 37 7 42 29 42 23 0 25 -3 20 -28z m1683 7
c0 -5 -7 -9 -15 -9 -15 0 -20 12 -9 23 8 8 24 -1 24 -14z m-421 -73 c16 -19 4
-64 -20 -71 -25 -8 -59 12 -59 35 0 19 35 50 56 50 6 0 17 -6 23 -14z m-1172
-7 c16 -16 5 -39 -17 -39 -23 0 -34 16 -26 35 6 18 28 19 43 4z m513 -15 c0
-17 -22 -14 -28 4 -2 7 3 12 12 12 9 0 16 -7 16 -16z m155 6 c9 -15 -25 -60
-46 -60 -11 0 -18 -6 -16 -12 1 -8 -8 -12 -24 -10 -30 3 -64 -37 -55 -66 4
-15 -24 -62 -37 -62 -12 0 -16 34 -5 47 10 12 5 14 -33 9 -24 -2 -45 -5 -46
-5 -2 -1 -3 -19 -3 -40 0 -31 -4 -41 -20 -46 -28 -9 -58 3 -65 26 -7 23 -21
25 -32 4 -6 -10 -13 -11 -23 -5 -13 9 -13 11 0 20 8 6 26 13 40 16 14 4 32 12
40 20 21 18 207 114 212 109 2 -2 19 11 38 30 35 34 63 44 75 25z m45 0 c0 -5
-7 -10 -16 -10 -8 0 -12 5 -9 10 3 6 10 10 16 10 5 0 9 -4 9 -10z m-1910 -30
c0 -5 -4 -10 -10 -10 -5 0 -10 5 -10 10 0 6 5 10 10 10 6 0 10 -4 10 -10z
m-150 -20 c0 -11 -6 -20 -14 -20 -18 0 -29 16 -21 30 11 18 35 11 35 -10z
m1264 5 c3 -8 -3 -19 -13 -24 -21 -12 -31 -5 -31 21 0 22 35 25 44 3z m-1358
-6 c9 -15 -11 -33 -30 -26 -9 4 -13 13 -10 22 7 17 30 20 40 4z m2834 -14 c26
-32 -13 -81 -47 -59 -35 22 -23 74 17 74 10 0 23 -7 30 -15z m468 -13 c2 -14
-2 -22 -12 -22 -19 0 -29 17 -22 36 8 22 30 12 34 -14z m-1790 -29 c2 -16 -4
-26 -22 -35 -14 -6 -26 -19 -26 -28 0 -10 -7 -23 -15 -30 -8 -7 -15 -18 -15
-25 0 -7 -7 -16 -16 -19 -10 -4 -13 -13 -9 -25 3 -11 -2 -28 -14 -42 -16 -21
-22 -22 -45 -11 -14 6 -26 19 -26 28 0 10 -7 25 -16 35 -17 18 -13 49 5 49 6
0 19 -9 29 -20 31 -34 53 -16 50 38 -3 42 0 48 24 59 15 8 30 23 33 34 10 29
59 23 63 -8z m-1323 -30 c4 -22 3 -33 -4 -33 -15 0 -33 49 -26 68 8 21 21 4
30 -35z m838 12 c25 -25 7 -69 -29 -73 -41 -4 -62 29 -39 64 18 27 46 31 68 9z
m1016 2 c8 -11 6 -18 -8 -31 -23 -21 -51 -11 -51 20 0 19 5 24 24 24 13 0 29
-6 35 -13z m1054 1 c24 -12 39 -48 19 -48 -22 0 -62 27 -62 43 0 20 7 21 43 5z
m135 -25 c-4 -22 -22 -20 -26 1 -2 10 3 16 13 16 10 0 15 -7 13 -17z m-271
-15 c-3 -8 -6 -5 -6 6 -1 11 2 17 5 13 3 -3 4 -12 1 -19z m13 -53 c0 -35 18
-40 47 -14 l25 24 -7 -34 -7 -35 51 37 c28 20 53 37 55 37 1 0 -2 -16 -8 -35
-7 -23 -17 -35 -28 -35 -10 0 -18 -4 -18 -10 0 -5 7 -10 15 -10 8 0 15 -7 15
-15 0 -8 -5 -15 -11 -15 -6 0 -9 -6 -7 -12 3 -7 27 -18 54 -24 l49 -11 -40
-11 c-22 -7 -48 -12 -57 -12 -22 0 -23 -13 -3 -30 15 -13 11 -35 -6 -25 -18
12 -9 -17 17 -50 16 -22 21 -36 14 -40 -18 -11 -39 2 -34 22 4 13 -4 22 -28
32 -18 8 -37 16 -42 19 -4 2 -5 -5 -1 -17 5 -17 1 -23 -20 -31 -15 -6 -29 -19
-32 -30 -5 -19 -6 -19 -19 6 -8 14 -14 36 -14 48 0 16 -2 18 -9 7 -5 -8 -26
-14 -50 -14 -46 0 -63 -14 -37 -32 20 -15 11 -45 -14 -45 -23 0 -34 28 -18 48
11 13 10 14 -9 3 -31 -16 -65 2 -61 32 3 19 9 22 47 20 43 -2 43 -2 38 27 -4
18 -2 30 6 33 14 5 -36 27 -62 27 -36 0 -30 15 10 25 39 9 42 12 44 49 1 27
-4 45 -16 57 -35 35 -19 38 32 7 40 -25 52 -29 59 -18 4 7 6 19 3 27 -8 19 14
16 26 -4 8 -15 10 -14 17 12 4 17 9 33 11 38 8 14 23 -4 23 -28z m-1841 4 c-7
-4 -17 -5 -22 -2 -5 3 -3 9 4 14 7 4 17 5 22 2 5 -3 3 -9 -4 -14z m951 5 c11
-12 11 -18 -2 -30 -16 -16 -48 -9 -48 10 0 13 20 36 31 36 4 0 12 -7 19 -16z
m-1562 -17 c2 -12 -3 -17 -17 -17 -12 0 -21 6 -21 13 0 31 32 34 38 4z m1062
13 c0 -5 -7 -10 -15 -10 -8 0 -15 5 -15 10 0 6 7 10 15 10 8 0 15 -4 15 -10z
m1825 -24 c0 -22 -14 -29 -34 -17 -19 12 -6 43 16 39 10 -2 18 -12 18 -22z
m-2235 -6 c0 -5 -4 -10 -9 -10 -6 0 -13 5 -16 10 -3 6 1 10 9 10 9 0 16 -4 16
-10z m738 -27 c4 -28 -28 -48 -51 -30 -11 9 -13 18 -6 35 12 31 53 27 57 -5z
m820 -2 c5 -31 -11 -45 -41 -37 -32 8 -41 31 -20 51 22 23 57 15 61 -14z m740
-15 c5 -25 -12 -39 -37 -31 -20 6 -28 34 -14 49 13 13 48 1 51 -18z m-1640 -2
c29 -20 28 -42 -3 -56 -19 -8 -28 -8 -40 2 -18 15 -20 56 -2 63 19 8 21 8 45
-9z m-1268 -19 c0 -8 -7 -15 -15 -15 -8 0 -15 7 -15 15 0 8 7 15 15 15 8 0 15
-7 15 -15z m2817 -12 c3 -8 -1 -21 -9 -30 -20 -19 -58 -2 -58 27 0 31 55 34
67 3z m-740 -5 c-3 -8 -6 -5 -6 6 -1 11 2 17 5 13 3 -3 4 -12 1 -19z m-2117
-86 c-1 -14 -50 -43 -61 -36 -7 4 0 15 17 29 27 21 44 24 44 7z m2144 -34 c3
-18 8 -64 11 -103 4 -55 3 -65 -6 -45 -6 14 -12 47 -14 73 -2 27 -7 62 -10 78
-4 17 -2 29 4 29 5 0 12 -15 15 -32z m-2823 -71 c10 -71 13 -77 35 -77 12 0
26 5 29 10 11 18 35 11 35 -10 0 -24 13 -26 30 -5 18 21 110 86 110 77 0 -4
-22 -35 -50 -69 -27 -34 -50 -64 -50 -67 0 -3 9 -6 20 -6 16 0 19 -6 17 -37
l-2 -38 55 -9 c30 -5 57 -11 60 -13 9 -8 -26 -23 -56 -23 -41 0 -74 -24 -56
-41 18 -19 15 -27 -14 -42 l-26 -14 31 -34 c17 -18 31 -39 31 -46 0 -7 5 -13
10 -13 6 0 10 -4 10 -10 0 -9 -42 11 -96 46 -13 9 -24 12 -24 8 0 -5 -5 -2
-10 6 -16 25 -30 -8 -24 -55 l5 -40 -17 27 c-24 37 -44 43 -45 15 0 -12 -6
-40 -13 -62 l-13 -40 -7 40 c-4 22 -11 49 -16 60 -4 11 -11 28 -14 38 -3 9
-10 17 -16 17 -6 0 -8 -4 -5 -10 4 -6 -6 -10 -24 -10 -23 0 -29 4 -25 15 4 8
1 15 -6 15 -11 0 -69 -40 -99 -68 -7 -7 -16 -11 -19 -8 -4 5 13 34 64 103 16
22 15 22 -15 18 l-32 -4 21 34 c11 18 17 36 13 38 -7 4 -118 27 -130 27 -2 0
-2 4 2 10 3 5 33 12 66 16 71 8 82 23 42 58 l-28 25 33 1 c17 0 32 4 32 9 0 5
-20 33 -44 62 -25 30 -43 55 -42 57 6 5 80 -40 108 -66 23 -21 30 -23 43 -12
11 9 13 23 9 51 -8 47 7 52 32 10 10 -17 21 -28 25 -25 4 2 10 28 14 57 7 59
15 90 21 85 2 -2 9 -39 15 -81z m779 68 c0 -8 -4 -15 -10 -15 -5 0 -10 7 -10
15 0 8 5 15 10 15 6 0 10 -7 10 -15z m1007 -161 c-3 -19 0 -22 22 -21 22 2 27
-3 29 -27 4 -32 -10 -46 -38 -39 -20 5 -33 29 -24 44 3 5 -6 13 -20 19 -30 11
-35 44 -9 59 24 13 46 -6 40 -35z m1456 19 c6 -16 16 -31 22 -35 37 -25 47
-36 41 -47 -5 -8 -15 -6 -36 9 -29 21 -94 27 -105 10 -3 -5 -13 -10 -21 -10
-21 0 -17 38 6 45 11 3 20 14 20 24 0 42 55 44 73 4z m597 -38 c0 -28 -21 -33
-40 -10 -15 18 -5 35 21 35 14 0 19 -7 19 -25z m1274 -53 c34 -3 37 -6 32 -27
-8 -30 2 -55 22 -55 14 0 14 -2 -1 -12 -19 -15 -31 -58 -16 -58 6 0 7 -5 4
-11 -4 -6 -14 -8 -22 -5 -18 7 -61 -20 -66 -42 -3 -12 -6 -9 -11 11 -7 24 -13
27 -52 27 -24 0 -44 2 -44 4 0 3 4 16 10 31 8 22 7 27 -15 37 l-25 11 26 24
c24 23 25 25 10 48 -22 34 -20 36 16 18 31 -16 32 -16 57 13 24 28 26 28 31 9
4 -15 16 -21 44 -23z m-3369 -7 c0 -26 -4 -30 -29 -33 -37 -4 -49 8 -40 42 5
23 11 27 38 24 27 -3 31 -7 31 -33z m1358 -9 c9 -22 -18 -40 -33 -22 -6 9 -9
20 -5 26 9 15 32 12 38 -4z m32 -77 c9 -26 -13 -51 -39 -47 -27 4 -34 47 -11
64 21 16 42 8 50 -17z m1002 9 c-3 -8 -6 -5 -6 6 -1 11 2 17 5 13 3 -3 4 -12
1 -19z m-312 -48 c0 -30 -32 -35 -49 -7 -8 14 -8 20 4 27 24 16 45 7 45 -20z
m-1537 -2 c7 -7 12 -18 12 -25 0 -17 -35 -34 -54 -27 -16 6 -22 45 -9 57 10
11 38 8 51 -5z m1450 -20 c16 -16 15 -23 -4 -42 -12 -12 -20 -13 -35 -6 -10 6
-19 16 -19 23 0 16 20 37 35 37 6 0 16 -5 23 -12z m102 -37 c15 -30 12 -40
-15 -53 -30 -14 -55 3 -55 37 0 37 52 48 70 16z m190 -20 c0 -6 -4 -13 -10
-16 -5 -3 -10 1 -10 9 0 9 5 16 10 16 6 0 10 -4 10 -9z m30 -27 c-18 -21 -24
-10 -9 18 8 14 14 18 17 10 2 -7 -2 -19 -8 -28z m-2025 -34 c-3 -5 -13 -10
-21 -10 -8 0 -12 5 -9 10 3 6 13 10 21 10 8 0 12 -4 9 -10z m1255 -6 c11 -12
10 -18 -3 -31 -8 -9 -23 -13 -31 -10 -19 8 -21 43 -3 50 20 9 24 8 37 -9z
m700 -4 c0 -21 -91 -95 -142 -118 -26 -11 -40 -1 -18 13 6 4 8 11 5 16 -4 5 3
9 15 9 25 0 119 60 119 78 1 15 21 17 21 2z m-792 -43 c4 -31 -20 -46 -43 -27
-18 15 -20 46 -2 53 25 11 42 1 45 -26z m-3458 3 c0 -5 -5 -10 -11 -10 -5 0
-7 5 -4 10 3 6 8 10 11 10 2 0 4 -4 4 -10z m3787 -35 c7 -20 -2 -29 -21 -22
-9 4 -13 13 -10 22 8 19 23 19 31 0z m-282 -26 c0 -17 -6 -24 -20 -24 -23 0
-33 34 -13 46 20 13 33 5 33 -22z m173 -71 c19 -19 14 -34 -13 -46 -22 -10
-25 -9 -31 13 -10 40 17 60 44 33z m399 -114 c8 -21 -13 -42 -28 -27 -13 13
-5 43 11 43 6 0 13 -7 17 -16z m-185 -59 c7 -10 1 -25 -10 -25 -16 1 -53 40
-47 50 6 10 43 -6 57 -25z m114 -6 c10 -17 -13 -36 -27 -22 -12 12 -4 33 11
33 5 0 12 -5 16 -11z m-3188 -88 c21 -13 11 -55 -14 -59 -30 -4 -48 21 -34 47
11 22 27 26 48 12z m3346 3 c9 -3 16 -15 16 -25 0 -12 7 -19 18 -19 37 0 59
-54 27 -66 -19 -8 -27 -36 -19 -68 7 -29 25 -34 44 -11 18 21 33 19 25 -4 -6
-21 10 -38 20 -21 7 11 80 60 90 60 3 0 -10 -23 -30 -51 -41 -60 -43 -69 -13
-69 17 0 19 -3 10 -12 -33 -33 9 -68 80 -68 18 0 27 -4 23 -11 -4 -6 -13 -8
-21 -5 -7 3 -18 -2 -22 -11 -6 -10 -16 -14 -26 -10 -10 4 -26 2 -37 -4 -16 -8
-18 -14 -9 -24 8 -10 8 -19 -1 -33 -11 -17 -9 -26 14 -61 30 -45 24 -52 -16
-21 -14 11 -32 20 -40 20 -9 0 -17 5 -19 12 -3 7 -10 8 -17 4 -8 -5 -9 -11 -3
-15 6 -4 6 -15 0 -31 l-10 -25 -15 23 c-21 30 -33 28 -34 -5 0 -16 -4 -37 -8
-48 -7 -17 -10 -14 -21 23 -13 42 -21 47 -69 43 -18 -2 -22 2 -18 13 7 19 -6
20 -34 5 -12 -6 -27 -8 -36 -5 -13 5 -13 9 -2 22 9 12 10 20 2 33 -7 11 -8 23
-2 32 5 8 9 19 9 25 0 14 -44 34 -75 34 -13 0 -26 4 -30 9 -6 10 9 16 68 27
35 6 49 25 27 39 -17 10 -11 25 10 25 28 0 26 8 -20 68 -22 28 -38 52 -35 52
2 0 23 -13 47 -29 52 -35 84 -45 93 -31 4 6 -1 36 -11 66 -15 48 -15 57 -3 65
8 5 19 9 26 9 16 0 27 -38 15 -53 -11 -13 0 -51 17 -62 7 -4 11 5 11 24 0 16
4 32 8 35 5 3 8 22 7 43 -2 30 -7 39 -24 41 -20 3 -29 31 -14 45 8 8 8 8 27 1z
m-684 -50 c0 -28 -25 -42 -48 -27 -23 14 -25 29 -8 46 22 22 56 10 56 -19z
m400 26 c0 -5 -4 -10 -10 -10 -5 0 -10 5 -10 10 0 6 5 10 10 10 6 0 10 -4 10
-10z m-3262 -112 c4 -29 -22 -45 -44 -27 -19 16 -17 36 4 48 24 15 37 8 40
-21z m-48 -69 c0 -12 -7 -19 -19 -19 -26 0 -36 17 -21 35 15 18 40 8 40 -16z
m98 -17 c4 -30 -26 -42 -44 -17 -10 14 -11 22 -2 32 16 20 42 12 46 -15z
m-238 -113 c0 -12 -7 -19 -20 -19 -19 0 -28 28 -14 43 11 11 34 -5 34 -24z
m4100 2 c0 -29 -23 -52 -40 -40 -11 8 -12 12 -2 16 6 2 12 13 12 22 0 10 3 21
6 24 10 10 24 -2 24 -22z m-790 -41 c0 -13 -7 -20 -20 -20 -19 0 -27 20 -13
33 13 14 33 6 33 -13z m-3233 -5 c7 -20 -2 -29 -21 -22 -9 4 -13 13 -10 22 8
19 23 19 31 0z m3028 -30 c25 -21 27 -25 12 -31 -20 -7 -57 21 -57 43 0 19 11
16 45 -12z m135 -30 c0 -8 -9 -15 -20 -15 -11 0 -20 7 -20 15 0 8 9 15 20 15
11 0 20 -7 20 -15z m-3030 -30 c0 -8 -7 -15 -15 -15 -16 0 -20 12 -8 23 11 12
23 8 23 -8z m3898 -2 c-5 -26 -38 -29 -38 -4 0 15 6 21 21 21 14 0 19 -5 17
-17z m-4008 -15 c0 -33 -14 -58 -31 -58 -20 0 -26 15 -9 25 6 3 10 15 10 26 0
10 7 19 15 19 8 0 15 -6 15 -12z m4087 -34 c7 -20 -17 -37 -34 -23 -15 13 -6
39 13 39 8 0 17 -7 21 -16z m-777 -14 c0 -15 -7 -20 -25 -20 -24 0 -34 18 -18
33 15 15 43 7 43 -13z m-300 -5 c0 -8 -4 -15 -10 -15 -5 0 -10 7 -10 15 0 8 5
15 10 15 6 0 10 -7 10 -15z m-3490 -46 c0 -5 -4 -9 -10 -9 -5 0 -10 7 -10 16
0 8 5 12 10 9 6 -3 10 -10 10 -16z m549 -34 c1 -11 5 -27 11 -35 7 -12 11 -12
28 3 18 17 21 17 36 2 15 -15 18 -15 42 4 52 41 60 20 13 -34 -17 -19 -26 -35
-21 -35 6 0 12 5 14 12 3 7 10 8 17 4 9 -6 10 -11 2 -19 -21 -21 -10 -37 34
-48 49 -12 51 -23 8 -32 -46 -10 -59 -23 -43 -41 18 -22 7 -30 -21 -15 -23 12
-23 12 -6 -12 9 -13 20 -31 24 -39 4 -8 14 -20 22 -27 9 -6 13 -14 10 -18 -4
-3 -13 0 -20 7 -22 22 -91 59 -97 53 -3 -3 3 -12 14 -21 10 -8 14 -13 8 -10
-7 3 -17 -1 -24 -9 -7 -9 -21 -13 -31 -10 -15 5 -19 1 -19 -17 0 -47 -17 -51
-24 -7 -4 24 -11 51 -16 59 -8 13 -12 12 -25 -7 -20 -29 -35 -29 -35 -2 0 13
-5 19 -12 15 -7 -3 -21 -9 -30 -12 -10 -4 -18 -10 -18 -15 0 -5 -7 -9 -15 -9
-21 0 -19 18 5 32 24 15 26 38 4 38 -16 0 -16 2 3 47 3 7 -11 14 -36 18 -39 6
-67 25 -39 25 7 0 29 5 50 10 29 8 35 14 31 30 -3 11 -9 17 -14 14 -5 -3 -9 0
-9 6 0 7 8 9 20 5 27 -9 25 4 -10 44 -16 19 -28 37 -25 39 2 2 29 -9 59 -26
59 -32 62 -32 46 -1 -9 15 -7 21 5 25 8 4 22 1 30 -6 11 -9 16 -4 26 30 10 34
14 39 20 24 4 -11 8 -28 8 -39z m3296 35 c8 -27 -1 -40 -30 -40 -25 0 -38 21
-29 45 9 22 51 19 59 -5z m-3378 -22 c-3 -8 -6 -5 -6 6 -1 11 2 17 5 13 3 -3
4 -12 1 -19z m3273 8 c0 -2 3 -11 6 -19 7 -19 -27 -39 -45 -28 -19 12 -4 51
20 51 10 0 19 -2 19 -4z m588 -5 c21 -13 10 -46 -16 -49 -24 -4 -38 18 -28 43
6 17 24 19 44 6z m97 -51 c0 -8 -10 -16 -22 -18 -22 -3 -32 16 -16 32 12 11
38 2 38 -14z m-40 -60 c0 -18 -6 -26 -23 -28 -24 -4 -38 18 -28 44 3 9 15 14
28 12 17 -2 23 -10 23 -28z m-405 -9 c5 -11 7 -26 4 -35 -8 -21 -42 -30 -59
-16 -15 13 -20 51 -8 63 13 14 53 6 63 -12z m-86 -77 c20 -19 20 -28 1 -44
-31 -26 -82 13 -56 44 17 20 35 20 55 0z m281 -14 c0 -20 -6 -26 -28 -28 -18
-2 -29 2 -33 12 -11 28 4 48 33 44 22 -2 28 -8 28 -28z m-3232 -4 c15 -12 15
-15 2 -26 -26 -22 -62 10 -38 33 9 10 15 8 36 -7z m-489 -176 c5 -5 6 -20 2
-34 -5 -22 -12 -26 -41 -26 -29 0 -36 4 -41 27 -11 44 44 66 80 33z m136 -96
c8 -8 14 -34 14 -57 1 -39 -1 -42 -27 -45 -23 -3 -30 2 -42 32 -19 44 -19 51
1 70 20 20 38 20 54 0z m-202 -86 c7 -7 12 -23 12 -36 0 -20 -4 -23 -32 -20
-36 3 -49 28 -28 53 15 18 32 19 48 3z m3291 -411 c8 -10 7 -17 -1 -25 -18
-18 -38 -14 -38 6 0 32 20 42 39 19z m-2155 -189 c16 -26 -4 -53 -40 -53 -23
0 -30 5 -32 23 -7 47 47 69 72 30z m181 -38 c0 -21 -5 -25 -30 -25 -33 0 -48
30 -23 46 25 17 53 6 53 -21z m2180 -113 c9 -26 15 -32 38 -30 18 1 27 -3 27
-13 0 -11 -17 -14 -78 -14 l-77 0 -1 40 c-1 42 11 44 27 3 10 -27 29 -23 29 7
0 25 11 52 18 45 4 -3 11 -20 17 -38z m-182 -17 c7 -6 21 -17 32 -25 20 -14
19 -14 -4 -15 -13 0 -30 8 -37 17 -22 29 -16 44 9 23z m82 -10 c3 -5 -1 -10
-9 -10 -9 0 -16 5 -16 10 0 6 4 10 9 10 6 0 13 -4 16 -10z m255 -15 c0 -10
-10 -15 -32 -15 -31 1 -32 1 -14 15 25 19 46 19 46 0z"/>
<path d="M4010 8744 c0 -9 5 -14 12 -12 18 6 21 28 4 28 -9 0 -16 -7 -16 -16z"/>
<path d="M4088 8708 c-10 -10 -24 -15 -33 -12 -18 7 -18 4 -5 -30 12 -32 26
-33 33 -5 4 14 11 20 21 16 21 -8 27 4 13 29 -12 19 -13 19 -29 2z"/>
<path d="M3782 8644 c-1 -32 2 -44 11 -41 15 5 17 87 2 87 -6 0 -12 -21 -13
-46z"/>
<path d="M4100 8600 c-8 -5 -31 -10 -50 -10 -52 0 -100 -33 -100 -69 0 -33
-15 -42 -47 -30 -15 5 -20 14 -16 27 6 25 -9 34 -41 26 -25 -6 -24 -6 25 -57
27 -29 49 -58 49 -64 0 -14 -22 -18 -33 -6 -4 3 -24 7 -45 9 -20 1 -27 0 -15
-3 15 -3 23 -12 23 -26 0 -12 1 -35 2 -52 2 -22 -3 -32 -21 -41 l-25 -13 27
-6 c20 -5 27 -13 27 -31 0 -13 -4 -24 -10 -24 -5 0 -10 5 -10 10 0 6 -11 10
-25 10 -20 0 -25 -5 -25 -25 0 -14 5 -25 10 -25 6 0 10 7 10 15 0 8 4 15 8 15
18 0 21 -14 8 -39 -37 -72 -39 -77 -26 -114 8 -20 10 -42 5 -53 -12 -29 -10
-60 4 -88 8 -13 11 -32 7 -41 -8 -23 -40 -14 -44 12 -4 26 -52 28 -52 1 0 -24
-18 -32 -37 -16 -15 12 -16 10 -10 -17 5 -26 1 -33 -29 -53 -18 -12 -38 -22
-44 -22 -5 0 -10 -9 -10 -20 0 -11 6 -20 14 -20 17 0 48 -39 40 -52 -3 -4 -13
-8 -24 -8 -13 0 -17 -5 -13 -20 6 -24 19 -26 27 -3 9 24 29 1 24 -28 -2 -15
-11 -25 -23 -27 -41 -7 -49 -12 -37 -24 18 -18 14 -48 -5 -48 -10 0 -37 -8
-60 -17 -31 -13 -41 -22 -38 -34 7 -20 -20 -43 -37 -33 -7 4 -5 -2 5 -13 21
-25 22 -52 1 -82 -11 -15 -23 -21 -38 -18 -15 4 -33 -6 -63 -33 -44 -38 -53
-66 -30 -89 10 -10 7 -16 -12 -30 -17 -13 -20 -20 -12 -26 7 -4 21 2 32 14 11
12 24 21 29 21 6 0 10 15 10 34 0 19 4 46 10 61 8 21 14 24 37 19 15 -4 38
-13 52 -20 14 -8 41 -14 58 -14 28 0 35 5 47 35 17 40 51 48 61 15 9 -27 -11
-50 -41 -50 -20 0 -24 -5 -24 -30 0 -19 -5 -30 -14 -30 -17 0 -28 -70 -13 -85
6 -7 11 -6 14 3 9 23 25 12 19 -13 -4 -14 -2 -25 3 -25 6 0 15 -19 22 -42 10
-40 12 -41 25 -23 18 25 18 45 -1 45 -19 0 -19 14 -1 29 8 7 12 21 9 34 l-5
22 17 -23 c9 -12 19 -47 22 -77 3 -30 10 -52 15 -49 13 8 35 -54 43 -124 6
-57 9 -62 27 -56 17 5 18 3 9 -14 -17 -32 -13 -60 9 -72 15 -8 19 -17 15 -31
-4 -12 -1 -21 10 -25 12 -5 13 -9 4 -20 -6 -8 -7 -14 -2 -14 5 0 15 -12 22
-26 10 -24 10 -26 -6 -21 -49 13 -48 14 -51 -40 -2 -29 -7 -53 -13 -53 -5 0
-9 -8 -9 -18 0 -10 -3 -22 -7 -26 -14 -14 -11 -66 3 -66 8 0 14 5 14 10 0 6 7
10 15 10 8 0 15 9 15 20 0 10 10 25 22 31 20 11 21 12 4 25 -10 7 -16 20 -14
29 2 14 18 9 93 -29 50 -25 96 -46 104 -46 7 0 33 14 58 30 30 20 56 30 82 30
21 0 41 3 45 7 16 16 81 0 115 -28 20 -16 40 -29 46 -29 13 0 75 -67 75 -81 0
-41 -40 -60 -81 -39 -23 13 -26 -2 -4 -20 8 -7 15 -21 15 -31 0 -20 20 -37 20
-17 1 7 10 24 21 37 31 37 53 18 57 -48 2 -28 7 -51 11 -51 4 0 16 16 26 35
13 23 23 31 30 25 9 -7 12 -3 11 15 -1 13 -5 27 -9 31 -4 4 -7 18 -7 31 0 21
4 24 33 21 23 -2 33 -9 35 -23 1 -11 14 -25 27 -32 22 -10 25 -9 25 10 0 16 3
18 12 9 20 -20 49 14 37 45 -12 31 -6 40 32 48 33 7 58 -13 59 -48 0 -10 4
-16 9 -13 5 3 8 40 6 82 l-3 76 34 -5 c32 -5 57 7 32 16 -10 3 -10 7 1 20 19
24 45 22 38 -3 -4 -16 0 -20 20 -20 21 0 23 3 17 23 -3 12 -10 23 -15 25 -4 2
-6 9 -3 15 2 7 -6 23 -19 37 -13 14 -22 31 -20 37 6 16 -30 34 -47 23 -18 -11
-31 -3 -24 14 10 26 -19 30 -39 5 l-20 -24 5 33 c5 39 -4 41 -30 7 -22 -28
-39 -17 -23 14 13 24 -13 81 -38 81 -19 0 -45 59 -35 83 3 8 1 24 -5 35 -8 16
-7 21 5 26 13 5 14 9 3 22 -10 12 -9 18 6 32 13 13 19 14 22 5 3 -7 18 -13 35
-13 19 0 28 4 25 13 -2 6 -12 11 -21 9 -16 -3 -16 -2 0 22 16 26 64 37 64 16
0 -5 -4 -10 -10 -10 -5 0 -10 -6 -10 -13 0 -8 13 -13 35 -14 37 -1 43 5 23 26
-11 10 -9 15 6 27 22 16 23 15 -26 37 -20 10 -39 26 -43 36 -16 51 -112 111
-130 81 -3 -6 -17 -10 -30 -10 -13 0 -27 -5 -30 -10 -4 -6 -16 -8 -26 -5 -11
4 -25 2 -32 -3 -15 -13 -51 15 -62 47 -4 15 -13 21 -28 19 -14 -2 -23 3 -25
15 -2 12 3 17 17 17 14 0 21 6 21 20 0 11 -7 20 -15 20 -8 0 -15 -4 -15 -10 0
-5 -6 -10 -12 -10 -18 0 -19 137 -2 144 8 3 16 1 19 -4 10 -16 55 -12 55 5 0
9 -9 15 -22 15 -21 0 -21 0 2 20 24 20 60 27 60 11 0 -5 -8 -12 -17 -15 -15
-6 -15 -8 -3 -16 16 -10 70 -14 70 -4 0 3 -5 14 -10 24 -14 26 2 33 36 15 44
-23 47 -18 10 20 -19 19 -39 35 -44 35 -6 0 -15 14 -21 30 -5 17 -17 30 -25
30 -9 0 -16 7 -16 15 0 8 -8 15 -18 15 -10 0 -23 5 -29 11 -8 8 -13 8 -18 0
-7 -12 32 -50 51 -51 16 0 62 -39 47 -40 -6 0 -37 13 -68 29 -81 42 -101 45
-135 21 -17 -12 -31 -16 -35 -10 -4 6 -13 5 -25 -2 -15 -10 -23 -9 -40 7 -12
11 -28 32 -36 47 -8 16 -23 28 -34 28 -20 0 -23 7 -35 82 -4 25 -2 37 7 40 10
4 10 10 -1 32 -12 22 -12 29 -2 39 11 9 14 9 18 0 6 -18 49 -16 78 3 16 11 34
14 55 9 31 -7 39 2 19 22 -13 13 -4 33 14 33 7 0 20 -9 30 -20 17 -21 37 -27
37 -11 0 16 -52 101 -62 101 -5 0 -7 9 -3 19 5 17 0 21 -38 26 -24 4 -61 2
-83 -4 -54 -15 -53 -15 -72 27 -16 36 -19 44 -21 70 0 6 -8 12 -16 12 -8 0
-16 3 -16 8 -16 92 -17 87 20 84 18 -1 40 3 47 9 8 6 25 8 39 5 23 -6 25 -4
19 19 -5 21 -3 25 15 25 16 0 21 -6 21 -27 1 -24 2 -25 11 -11 10 18 0 48 -27
78 -59 65 -64 75 -55 126 5 27 12 57 16 67 8 19 -2 22 -25 7z m-43 -56 c10
-27 -14 -40 -37 -19 -11 10 -17 22 -14 26 9 15 44 10 51 -7z m-30 -101 c4 -10
-2 -23 -18 -36 -21 -17 -22 -20 -8 -30 14 -11 14 -14 -2 -30 -24 -26 -53 -18
-57 16 -3 22 1 27 17 27 23 0 27 10 10 27 -7 7 -9 19 -6 27 8 21 56 21 64 -1z
m-137 -54 c0 -6 -4 -7 -10 -4 -5 3 -10 11 -10 16 0 6 5 7 10 4 6 -3 10 -11 10
-16z m208 -47 c2 -7 -6 -12 -17 -12 -21 0 -27 11 -14 24 9 9 26 2 31 -12z
m-121 -48 c8 -20 -21 -49 -41 -41 -9 4 -16 18 -16 32 0 20 5 25 25 25 14 0 28
-7 32 -16z m-77 -54 c0 -5 -7 -10 -16 -10 -8 0 -12 5 -9 10 3 6 10 10 16 10 5
0 9 -4 9 -10z m59 -29 c13 -24 -8 -55 -35 -49 -20 3 -30 29 -20 54 8 20 43 17
55 -5z m-1 -114 c-2 -17 -10 -22 -33 -22 -35 0 -47 31 -20 51 25 18 57 0 53
-29z m1 -81 c26 -31 -25 -69 -54 -39 -17 17 -17 16 -9 37 8 20 47 21 63 2z
m231 -45 c0 -12 -29 -35 -36 -28 -11 10 5 37 21 37 8 0 15 -4 15 -9z m-226
-47 c21 -8 21 -60 0 -68 -38 -14 -71 33 -42 62 14 14 20 14 42 6z m-156 -81
c-4 -22 -48 -31 -48 -10 0 19 10 27 32 27 13 0 18 -6 16 -17z m207 -54 c11
-33 -17 -56 -50 -41 -14 6 -25 18 -25 25 0 38 64 52 75 16z m-215 -19 c0 -13
-7 -20 -20 -20 -13 0 -20 7 -20 20 0 13 7 20 20 20 13 0 20 -7 20 -20z m0 -70
c0 -15 -7 -20 -25 -20 -24 0 -34 18 -18 33 15 15 43 7 43 -13z m260 -15 c26
-32 -13 -81 -47 -59 -35 22 -23 74 17 74 10 0 23 -7 30 -15z m-262 -67 c-2
-15 -10 -23 -23 -23 -13 0 -21 8 -23 23 -3 18 1 22 23 22 22 0 26 -4 23 -22z
m332 -59 c14 -25 -10 -69 -37 -69 -20 0 -53 28 -53 46 0 41 71 59 90 23z
m-325 -24 c0 -22 -31 -33 -48 -16 -7 7 -6 15 3 26 17 21 45 15 45 -10z m13
-93 c4 -28 -24 -40 -45 -19 -14 13 -14 19 -3 32 18 22 44 15 48 -13z m390 -30
c4 -40 -28 -61 -64 -41 -33 17 -33 66 -1 78 35 13 62 -2 65 -37z m-174 -24
c72 -88 136 -174 136 -185 0 -7 -5 -13 -12 -13 -7 0 -3 -10 9 -22 20 -19 25
-20 47 -8 21 11 28 11 42 -1 14 -11 19 -10 36 14 22 31 44 34 76 11 40 -28 25
-71 -31 -88 -16 -5 -16 -9 8 -53 14 -27 35 -63 46 -82 26 -43 19 -71 -11 -41
-28 28 -41 18 -29 -22 11 -39 26 -50 59 -43 31 7 48 -19 78 -115 20 -66 28
-195 11 -184 -5 3 -9 12 -9 20 0 8 -9 14 -21 14 -12 0 -41 19 -65 44 -51 50
-57 71 -18 56 35 -14 35 -13 24 15 -10 27 6 47 21 24 4 -7 12 -10 16 -5 4 5 2
11 -5 13 -7 3 -20 19 -28 35 -9 17 -19 26 -23 21 -3 -6 -20 -14 -38 -17 -26
-6 -32 -4 -37 12 -8 23 -93 92 -114 92 -12 0 -12 -4 2 -25 9 -14 12 -25 6 -25
-6 0 -13 7 -16 15 -4 8 -13 15 -20 15 -8 0 -17 7 -20 15 -4 8 -15 15 -25 15
-11 0 -22 7 -26 16 -3 8 -25 45 -49 80 -46 69 -54 94 -29 94 24 0 18 27 -13
58 -28 28 -28 29 -25 153 1 68 2 125 3 127 1 10 21 -3 44 -30z m-466 -6 c5
-32 -13 -50 -43 -44 -19 3 -25 10 -25 31 0 35 8 43 40 39 17 -2 26 -10 28 -26z
m276 -27 c6 -17 -21 -48 -37 -42 -6 2 -15 11 -21 21 -9 13 -7 20 7 31 21 15
43 11 51 -10z m126 -82 c0 -28 -14 -37 -30 -18 -7 9 -9 26 -5 45 6 29 8 30 21
13 7 -10 14 -28 14 -40z m318 45 c19 -19 14 -63 -8 -83 -17 -15 -24 -16 -45
-7 -25 12 -42 52 -30 72 7 12 41 28 61 29 5 1 15 -4 22 -11z m-588 -43 c17
-20 5 -45 -20 -45 -11 0 -23 7 -26 15 -6 15 11 45 26 45 4 0 13 -7 20 -15z
m170 -10 c18 -22 8 -50 -19 -50 -32 0 -49 28 -32 49 17 20 35 20 51 1z m-135
-81 c0 -12 -8 -20 -22 -22 -17 -3 -23 2 -23 16 0 20 16 33 35 28 6 -2 10 -11
10 -22z m185 -35 c14 -24 -2 -49 -31 -49 -25 0 -44 37 -28 56 17 20 47 17 59
-7z m-181 -32 c8 -10 7 -17 -1 -25 -15 -15 -39 3 -31 24 7 18 17 18 32 1z
m245 -80 c8 -30 -16 -51 -48 -43 -19 5 -26 13 -26 31 0 45 62 55 74 12z m474
21 c18 -18 14 -56 -6 -67 -49 -26 -88 11 -62 58 12 23 49 28 68 9z m-406 -115
c24 -22 23 -39 -6 -58 -31 -21 -66 -5 -66 28 0 44 38 61 72 30z m476 -2 c18
-11 11 -51 -10 -65 -35 -22 -74 27 -48 59 14 17 38 19 58 6z m-400 -97 c41
-29 17 -82 -32 -70 -29 7 -41 37 -26 66 13 24 28 25 58 4z m472 -19 c6 -8 9
-23 5 -35 -5 -17 -13 -20 -38 -18 -32 3 -45 23 -33 54 7 18 50 18 66 -1z
m-396 -71 c24 -9 21 -61 -4 -69 -41 -13 -69 43 -32 64 21 13 17 12 36 5z m463
-50 c9 -24 -21 -48 -50 -40 -35 8 -43 37 -17 58 24 19 56 10 67 -18z m-367
-49 c10 -12 10 -21 2 -40 -9 -20 -16 -23 -34 -16 -32 12 -45 36 -29 55 17 20
45 20 61 1z m570 -30 c0 -8 -4 -15 -10 -15 -5 0 -10 7 -10 15 0 8 5 15 10 15
6 0 10 -7 10 -15z m-166 -10 c13 -36 -31 -69 -59 -45 -16 13 -20 42 -8 53 12
13 61 7 67 -8z m-329 -55 c0 -20 -6 -26 -26 -28 -17 -2 -29 3 -32 12 -11 28 4
47 32 44 20 -2 26 -8 26 -28z m-95 0 c0 -5 -4 -10 -10 -10 -5 0 -10 5 -10 10
0 6 5 10 10 10 6 0 10 -4 10 -10z m458 -54 c6 -48 -50 -65 -70 -21 -14 32 5
57 41 53 20 -2 27 -9 29 -32z m-291 -2 c8 -21 -19 -46 -40 -38 -17 6 -23 35
-10 47 12 13 44 7 50 -9z m62 -58 c24 -29 -13 -65 -44 -42 -14 10 -15 16 -6
34 13 25 33 28 50 8z"/>
<path d="M4057 7304 c-12 -12 -8 -29 13 -52 24 -25 40 -28 40 -8 0 20 -43 69
-53 60z"/>
<path d="M4450 6701 c0 -5 5 -13 10 -16 6 -3 10 -2 10 4 0 5 -4 13 -10 16 -5
3 -10 2 -10 -4z"/>
<path d="M3771 8264 c0 -11 3 -14 6 -6 3 7 2 16 -1 19 -3 4 -6 -2 -5 -13z"/>
<path d="M3530 7995 c0 -19 5 -35 10 -35 6 0 10 16 10 35 0 19 -4 35 -10 35
-5 0 -10 -16 -10 -35z"/>
<path d="M3566 7932 c-2 -4 -1 -14 4 -21 10 -17 31 -5 23 14 -6 16 -19 20 -27
7z"/>
<path d="M4270 7925 c0 -8 7 -15 15 -15 8 0 15 7 15 15 0 8 -7 15 -15 15 -8 0
-15 -7 -15 -15z"/>
<path d="M4330 7845 c0 -8 5 -15 10 -15 6 0 10 7 10 15 0 8 -4 15 -10 15 -5 0
-10 -7 -10 -15z"/>
<path d="M4392 7816 c-1 -11 -9 -27 -18 -37 -21 -24 -12 -45 20 -51 29 -6 45
6 22 15 -9 4 -16 24 -19 49 -2 24 -4 34 -5 24z"/>
<path d="M3517 7803 c-7 -12 11 -53 23 -53 7 0 9 9 5 23 -9 28 -21 41 -28 30z"/>
<path d="M3448 7779 c-22 -12 -24 -39 -3 -39 16 0 29 22 23 39 -2 6 -9 6 -20
0z"/>
<path d="M3572 7741 c4 -13 18 -16 19 -4 0 4 -5 9 -11 12 -7 2 -11 -2 -8 -8z"/>
<path d="M3390 7701 c0 -6 5 -13 10 -16 6 -3 10 1 10 9 0 9 -4 16 -10 16 -5 0
-10 -4 -10 -9z"/>
<path d="M4545 7500 c-8 -13 4 -32 16 -25 12 8 12 35 0 35 -6 0 -13 -4 -16
-10z"/>
<path d="M3420 7249 c0 -25 17 -59 30 -59 16 0 23 49 10 65 -18 22 -40 18 -40
-6z"/>
<path d="M3385 7191 c-3 -5 -1 -12 5 -16 5 -3 10 1 10 9 0 18 -6 21 -15 7z"/>
<path d="M4820 7046 c0 -9 5 -16 10 -16 6 0 10 4 10 9 0 6 -4 13 -10 16 -5 3
-10 -1 -10 -9z"/>
<path d="M4916 6995 c4 -8 8 -15 10 -15 2 0 4 7 4 15 0 8 -4 15 -10 15 -5 0
-7 -7 -4 -15z"/>
<path d="M4875 6971 c-3 -5 -1 -12 5 -16 5 -3 10 1 10 9 0 18 -6 21 -15 7z"/>
<path d="M3414 6888 c-4 -6 2 -18 13 -28 11 -9 28 -33 38 -53 9 -20 21 -37 26
-37 5 0 9 2 9 4 0 10 -40 93 -53 109 -17 20 -23 21 -33 5z"/>
<path d="M3660 6856 c0 -8 5 -18 10 -21 6 -3 10 3 10 14 0 12 -4 21 -10 21 -5
0 -10 -6 -10 -14z"/>
<path d="M3446 6771 c-10 -15 4 -61 30 -99 32 -47 40 -22 15 48 -19 54 -33 70
-45 51z"/>
<path d="M3542 6588 c5 -15 28 -18 29 -3 0 6 -7 12 -17 13 -10 3 -15 -1 -12
-10z"/>
<path d="M3591 6576 c-10 -11 -9 -21 4 -45 8 -17 21 -30 27 -28 7 1 14 -7 16
-19 1 -11 16 -28 31 -37 43 -25 48 -21 17 12 -21 22 -27 37 -24 55 4 18 -2 34
-18 51 -26 29 -37 31 -53 11z"/>
<path d="M3690 6516 c0 -2 8 -10 18 -17 15 -13 16 -12 3 4 -13 16 -21 21 -21
13z"/>
<path d="M5247 6513 c-4 -3 -7 -11 -7 -17 0 -6 5 -5 12 2 6 6 9 14 7 17 -3 3
-9 2 -12 -2z"/>
<path d="M3865 6480 c3 -5 11 -10 16 -10 6 0 7 5 4 10 -3 6 -11 10 -16 10 -6
0 -7 -4 -4 -10z"/>
<path d="M4276 6452 c-2 -4 2 -15 9 -25 13 -18 14 -18 24 1 8 16 7 21 -5 26
-20 8 -22 8 -28 -2z"/>
<path d="M3910 6366 c-7 -15 -10 -36 -6 -53 4 -15 10 -43 13 -60 9 -58 38 -34
38 32 1 22 5 48 9 57 6 13 3 20 -10 25 -11 3 -22 10 -25 15 -3 5 -11 -3 -19
-16z"/>
<path d="M4811 6371 c-9 -6 -7 -10 8 -14 12 -3 21 -1 21 3 0 14 -15 19 -29 11z"/>
<path d="M5296 6232 c-3 -6 1 -15 8 -21 8 -7 17 -8 20 -3 3 6 -1 15 -8 21 -8
7 -17 8 -20 3z"/>
<path d="M5350 6231 c0 -5 9 -11 20 -14 13 -3 20 0 20 9 0 8 -9 14 -20 14 -11
0 -20 -4 -20 -9z"/>
<path d="M5425 6210 c-3 -5 -1 -10 4 -10 6 0 11 5 11 10 0 6 -2 10 -4 10 -3 0
-8 -4 -11 -10z"/>
<path d="M5697 6190 c-3 -12 -10 -19 -15 -16 -9 5 -30 -13 -77 -66 -11 -12
-20 -32 -20 -43 -1 -12 -5 -27 -10 -35 -5 -9 -4 -15 3 -18 24 -8 11 -22 -20
-22 -32 0 -33 -1 -33 -42 0 -40 -2 -43 -28 -46 -16 -2 -34 1 -41 7 -10 8 -17
7 -26 -4 -7 -8 -19 -15 -26 -15 -8 0 -14 -7 -14 -15 0 -10 -10 -15 -27 -15
-27 -1 -27 -1 -9 -15 18 -14 18 -16 1 -62 -10 -26 -24 -51 -31 -56 -7 -4 -11
-14 -7 -23 4 -11 9 -12 18 -4 10 8 15 8 20 -1 8 -12 -11 -29 -32 -29 -7 0 -13
-7 -13 -15 0 -8 -6 -14 -12 -13 -7 2 -13 -4 -13 -13 0 -9 -6 -24 -14 -33 -22
-26 3 -18 44 14 38 30 55 34 87 22 15 -6 13 -10 -12 -27 -39 -26 -38 -45 1
-45 26 0 31 3 26 20 -3 11 -1 20 4 20 5 0 9 -9 9 -20 0 -24 27 -37 42 -22 8 8
8 19 -2 39 -8 16 -16 31 -18 36 -9 17 38 4 98 -28 36 -19 76 -40 90 -47 20
-10 25 -20 24 -48 0 -19 6 -43 15 -53 10 -12 15 -40 16 -85 0 -67 0 -67 30
-70 40 -5 51 -17 35 -37 -9 -11 -22 -14 -39 -10 -26 5 -26 5 4 -17 60 -46 80
-66 72 -74 -4 -5 -23 0 -41 10 -21 11 -42 15 -59 11 -22 -6 -26 -4 -21 9 3 9
2 16 -4 16 -12 0 -23 -38 -12 -45 4 -2 5 -16 2 -31 -4 -24 -3 -25 16 -13 12 7
25 10 29 6 4 -5 1 -12 -6 -16 -9 -6 8 -19 54 -42 l67 -34 32 37 c30 34 36 37
97 39 67 2 109 -11 109 -36 0 -12 15 -15 69 -15 39 0 73 5 76 10 7 12 -1 15
-70 26 -34 6 -50 14 -50 24 0 11 17 16 70 21 82 7 254 -9 274 -25 8 -6 32 -11
54 -12 31 0 42 5 55 25 27 41 62 75 69 67 4 -4 2 -10 -4 -14 -8 -5 -9 -13 -3
-22 24 -37 -2 -86 -37 -73 -21 8 -15 -16 14 -53 17 -23 32 -33 42 -29 9 3 4
-6 -11 -19 -26 -24 -27 -24 -7 -42 10 -9 20 -15 22 -13 2 2 12 21 22 41 15 29
27 39 53 44 19 4 37 3 41 -2 10 -15 65 -15 85 -1 23 17 13 37 -18 37 -23 0
-24 4 -28 78 -5 85 1 95 47 86 21 -4 26 -2 16 4 -18 12 -7 42 15 42 11 0 15
-6 11 -20 -4 -16 0 -20 23 -20 23 0 27 4 23 20 -4 15 0 20 14 20 10 0 24 -5
31 -12 8 -8 16 -5 31 13 16 19 17 25 5 27 -21 5 -17 22 5 22 10 0 25 10 34 23
12 18 18 20 28 10 7 -7 21 -13 30 -13 24 0 28 20 11 60 -14 34 -15 34 -25 13
-11 -25 -27 -29 -45 -11 -21 21 -14 47 16 54 15 4 30 12 34 18 5 8 17 7 40 -2
29 -11 35 -10 46 5 6 9 12 11 12 5 0 -7 4 -12 10 -12 5 0 9 3 8 8 -4 14 23 52
38 52 8 0 24 9 36 20 12 11 34 20 50 20 23 0 28 4 28 25 0 14 -8 29 -20 35
-17 9 -20 7 -26 -15 -5 -19 -13 -25 -34 -25 -31 0 -46 24 -34 55 6 13 15 16
44 12 27 -3 39 0 46 13 43 79 48 93 37 97 -7 3 -13 14 -13 24 0 11 -11 30 -25
43 -19 18 -25 36 -30 85 l-6 63 31 -7 c19 -4 36 -2 45 5 9 7 28 10 45 6 29 -5
30 -4 24 22 -10 39 -14 43 -34 37 -29 -9 -140 -19 -197 -17 -28 1 -64 -3 -79
-8 -24 -9 -31 -8 -44 8 -29 36 -94 52 -218 54 -64 0 -122 4 -127 9 -6 4 -38 5
-72 2 -51 -5 -64 -9 -69 -26 -5 -16 -8 -17 -15 -6 -5 8 -9 9 -9 3 0 -6 9 -18
21 -25 17 -12 19 -18 10 -42 -10 -24 -8 -29 12 -37 17 -7 18 -9 5 -9 -20 -1
-23 -12 -7 -28 7 -7 3 -9 -14 -6 -22 4 -66 -10 -120 -38 -10 -5 -22 -7 -28 -3
-5 3 -15 1 -22 -4 -7 -5 -30 -7 -51 -3 -45 7 -74 45 -75 99 -1 29 -3 32 -26
26 -24 -6 -25 -4 -25 38 0 24 -5 49 -12 56 -14 14 8 46 25 35 16 -10 67 -12
72 -2 3 4 -2 12 -11 17 -13 7 -14 13 -5 31 7 11 19 21 29 22 9 0 12 3 6 5 -6
3 -24 -1 -40 -7 -16 -7 -34 -11 -41 -10 -6 1 -14 -3 -18 -9 -3 -5 -30 -10 -60
-10 -32 0 -59 -5 -68 -14 -11 -12 -18 -10 -47 16 -22 19 -36 25 -39 17 -2 -6
4 -16 13 -21 20 -11 21 -28 1 -28 -8 0 -19 -8 -24 -19 -7 -12 -30 -22 -70 -30
-66 -13 -86 -29 -79 -65 4 -18 0 -26 -15 -30 -28 -7 -53 9 -68 43 -12 27 -14
28 -35 14 -27 -18 -40 -3 -23 28 10 19 9 21 -5 16 -20 -8 -29 8 -12 22 10 8
11 22 6 52 -9 50 -25 69 -33 39z m292 -156 c10 -10 -25 -35 -43 -30 -11 3 -26
0 -33 -6 -9 -7 -13 -7 -13 1 0 6 4 11 9 11 5 0 13 9 16 21 6 17 12 19 33 14
15 -4 29 -8 31 -11z m915 7 c3 -5 -1 -11 -9 -15 -22 -8 -18 -29 4 -23 10 2 25
0 34 -4 21 -12 31 5 17 31 -9 17 -8 20 10 20 42 0 123 -64 115 -91 -3 -10 -1
-20 5 -24 12 -8 13 -77 1 -90 -4 -6 -11 -25 -15 -43 -4 -24 -2 -34 9 -38 28
-11 16 -27 -16 -20 -19 3 -38 0 -52 -9 -12 -7 -40 -16 -62 -18 -22 -3 -48 -8
-58 -12 -13 -6 -16 -3 -11 10 4 10 -1 22 -15 31 -11 8 -21 24 -21 36 0 14 -5
18 -15 14 -32 -12 -70 106 -41 126 8 5 7 14 -2 29 -17 27 -9 34 40 34 24 0 43
5 45 13 3 6 -2 12 -11 12 -14 0 -14 3 -4 20 13 21 43 27 52 11z m476 -41 c0
-5 -7 -10 -15 -10 -8 0 -15 5 -15 10 0 6 7 10 15 10 8 0 15 -4 15 -10z m-1762
-32 c16 -16 15 -53 -3 -68 -16 -13 -54 -5 -56 13 -5 52 30 84 59 55z m117 -53
c0 -27 -3 -30 -30 -30 -21 0 -31 5 -33 18 -6 33 6 49 35 45 24 -3 28 -8 28
-33z m549 26 c3 -5 -1 -11 -9 -15 -9 -3 -15 0 -15 9 0 16 16 20 24 6z m-436
-23 c28 -28 1 -75 -37 -63 -22 7 -33 28 -25 49 5 13 16 19 45 25 3 0 10 -4 17
-11z m132 -43 c26 -32 -16 -74 -54 -53 -16 9 -22 49 -9 61 12 12 50 7 63 -8z
m134 -37 c13 -19 14 -25 2 -43 -7 -11 -20 -21 -29 -23 -23 -5 -58 34 -50 55
14 39 54 44 77 11z m-704 2 c0 -5 -5 -10 -11 -10 -5 0 -7 5 -4 10 3 6 8 10 11
10 2 0 4 -4 4 -10z m850 -44 c17 -22 8 -60 -17 -71 -29 -13 -29 -21 2 -41 30
-20 33 -38 5 -31 -31 8 -24 -11 13 -33 22 -15 42 -19 64 -15 31 5 99 -11 140
-34 10 -6 42 -20 71 -32 28 -12 52 -25 52 -30 0 -14 -37 -29 -69 -29 -18 0
-40 -9 -53 -22 -20 -20 -20 -21 -1 -16 11 3 29 1 39 -5 18 -10 17 -11 -6 -18
-49 -14 -70 -10 -70 11 0 23 -28 27 -61 9 -14 -7 -29 -7 -54 2 -28 10 -39 10
-60 -1 -20 -11 -35 -11 -76 -2 -68 16 -70 16 -63 -12 8 -33 -12 -66 -39 -66
-43 0 -60 39 -35 80 20 32 3 32 -32 0 -34 -32 -50 -36 -81 -20 -23 13 -25 43
-3 65 18 18 52 12 71 -12 8 -11 13 -11 19 -2 5 8 -5 23 -27 42 -87 74 -116 95
-137 102 -12 3 -20 11 -16 16 3 6 12 8 20 5 8 -3 14 -1 14 4 0 6 -7 10 -16 10
-14 0 -14 3 -4 15 10 12 10 18 1 29 -10 11 -8 17 6 25 15 9 13 10 -15 11 -20
0 -31 -4 -27 -10 4 -6 -7 -10 -24 -10 -30 0 -41 -13 -21 -25 16 -10 11 -25 -9
-25 -10 0 -24 7 -31 15 -7 8 -19 15 -27 15 -8 0 -27 13 -41 28 -15 16 -34 31
-42 34 -13 5 -13 6 0 11 96 32 259 34 315 4 20 -11 24 -16 13 -17 -28 0 -21
-26 10 -38 15 -6 55 -12 89 -14 54 -4 62 -2 67 15 4 16 10 18 36 12 32 -7 32
-7 25 24 -4 20 -2 37 5 46 16 19 64 19 80 1z m-832 -38 c2 -9 -7 -27 -19 -39
-21 -21 -23 -21 -36 -4 -7 11 -13 29 -13 43 0 20 4 23 32 20 21 -2 34 -9 36
-20z m965 3 c30 -12 39 -34 27 -66 -8 -20 -17 -25 -43 -25 -55 0 -76 43 -40
82 19 21 23 21 56 9z m-314 -25 c19 -22 -2 -26 -28 -5 -22 18 -22 19 -3 19 11
0 25 -6 31 -14z m-579 -20 c0 -14 -5 -28 -10 -31 -17 -11 -50 5 -50 24 0 24 9
31 37 31 18 0 23 -6 23 -24z m1058 -18 c7 -7 12 -21 12 -33 0 -12 -5 -26 -12
-33 -7 -7 -21 -12 -33 -12 -12 0 -26 5 -33 12 -7 7 -12 21 -12 33 0 12 5 26
12 33 7 7 21 12 33 12 12 0 26 -5 33 -12z m-978 -13 c18 -21 5 -45 -24 -45
-30 0 -40 13 -31 40 7 24 37 26 55 5z m1120 -29 c6 -8 10 -25 8 -38 -2 -19 -9
-23 -38 -23 -29 0 -36 4 -38 23 -4 28 14 52 38 52 10 0 23 -7 30 -14z m-1029
-28 c10 -18 8 -24 -7 -35 -10 -7 -23 -12 -28 -10 -17 6 -29 34 -23 51 9 23 44
20 58 -6z m1175 -13 c8 -31 -10 -55 -43 -55 -27 0 -38 19 -29 55 5 20 13 25
36 25 23 0 31 -5 36 -25z m118 -7 c19 -27 5 -58 -27 -58 -43 0 -60 35 -31 64
21 22 40 20 58 -6z m236 7 c16 -19 3 -55 -20 -55 -31 0 -50 11 -50 29 0 37 46
55 70 26z m-112 -26 c4 -33 -16 -49 -45 -38 -15 5 -23 17 -23 32 0 31 9 39 40
35 19 -2 26 -10 28 -29z m-1320 -18 c6 -41 -48 -57 -68 -20 -15 27 5 51 39 47
19 -2 27 -10 29 -27z m96 -34 c23 -17 14 -53 -15 -62 -22 -7 -49 10 -49 31 0
14 27 44 39 44 4 0 15 -6 25 -13z m1140 -133 c8 -21 -1 -34 -25 -34 -14 0 -19
7 -19 25 0 29 34 36 44 9z m-776 -16 c29 -29 -4 -76 -42 -62 -16 6 -22 54 -9
67 10 11 38 8 51 -5z m696 6 c20 -8 20 -28 0 -44 -12 -11 -18 -11 -30 2 -8 8
-12 22 -8 31 7 18 14 20 38 11z m-76 -38 c6 -27 -14 -42 -32 -27 -12 10 -13
18 -5 33 12 22 32 19 37 -6z m-497 4 c6 0 9 -12 7 -27 -4 -37 -52 -46 -63 -13
-8 25 12 53 32 45 8 -3 19 -5 24 -5z m415 -15 c4 -8 0 -22 -7 -31 -11 -13 -14
-13 -27 0 -17 17 -9 46 13 46 9 0 18 -7 21 -15z m-288 -20 c4 -27 -34 -51 -54
-34 -15 12 -19 41 -7 53 15 15 58 1 61 -19z m86 19 c20 -8 21 -38 1 -54 -12
-10 -18 -10 -30 0 -18 15 -20 46 -2 53 6 3 13 6 14 6 1 1 8 -2 17 -5z m114
-18 c5 -25 -12 -39 -37 -31 -20 6 -28 34 -14 49 13 13 48 1 51 -18z m-243
-142 c0 -10 -8 -20 -18 -22 -22 -4 -35 27 -16 39 20 12 34 5 34 -17z m-77 -13
c-5 -24 -38 -27 -38 -3 0 10 3 21 6 25 11 11 35 -5 32 -22z m170 6 c4 -21 -15
-47 -34 -47 -18 0 -28 38 -13 56 16 19 43 14 47 -9z m157 -97 c10 -32 -4 -60
-29 -60 -26 0 -46 17 -46 40 0 40 63 57 75 20z"/>
<path d="M6983 6003 c-20 -7 -15 -23 7 -23 11 0 20 4 20 9 0 13 -12 19 -27 14z"/>
<path d="M5755 5750 c3 -5 8 -10 11 -10 2 0 4 5 4 10 0 6 -5 10 -11 10 -5 0
-7 -4 -4 -10z"/>
<path d="M5890 5622 c0 -4 14 -13 31 -19 31 -12 31 -12 14 7 -18 20 -45 27
-45 12z"/>
<path d="M6380 5562 c0 -13 20 -28 48 -36 16 -5 24 -3 28 9 8 20 6 22 -38 30
-23 4 -38 3 -38 -3z"/>
<path d="M3960 6183 c0 -7 7 -13 15 -13 8 0 15 6 15 13 0 8 -7 14 -15 14 -8 0
-15 -6 -15 -14z"/>
<path d="M4315 6190 c-41 -12 -103 -35 -110 -42 -4 -3 -8 -27 -11 -53 -3 -35
-1 -46 8 -43 7 3 14 17 16 31 2 15 10 27 17 27 20 0 30 -21 14 -31 -11 -7 -12
-10 -1 -21 11 -11 16 -9 28 7 13 18 13 21 -2 32 -14 11 -15 17 -6 38 14 30 18
31 61 4 18 -11 36 -18 38 -15 3 3 7 21 9 41 3 38 -3 41 -61 25z"/>
<path d="M6365 6164 c-20 -30 -20 -29 28 -38 42 -8 44 -5 20 35 -21 36 -26 36
-48 3z"/>
<path d="M4395 6171 c-3 -5 -1 -12 5 -16 5 -3 10 1 10 9 0 18 -6 21 -15 7z"/>
<path d="M5234 6157 c-7 -18 13 -87 26 -87 10 0 1 81 -11 94 -5 6 -11 3 -15
-7z"/>
<path d="M4015 6123 c-16 -15 -15 -18 7 -34 19 -15 25 -16 36 -5 11 11 11 18
3 35 -14 25 -24 26 -46 4z"/>
<path d="M6446 6121 c-4 -5 -2 -12 3 -15 5 -4 12 -2 15 3 4 5 2 12 -3 15 -5 4
-12 2 -15 -3z"/>
<path d="M3619 6058 c-1 -7 -1 -19 0 -25 1 -7 -3 -13 -9 -13 -6 0 -8 5 -5 10
7 12 -2 12 -30 1 -13 -5 -31 -3 -49 6 -31 16 -49 5 -39 -26 3 -10 2 -12 -4 -5
-4 5 -28 10 -51 10 -32 0 -48 5 -58 18 -13 18 -14 18 -20 -13 -11 -51 -69 -64
-109 -24 -20 19 -30 11 -17 -14 14 -29 -1 -67 -31 -77 -23 -9 -31 -6 -53 16
-23 22 -24 28 -14 48 11 21 11 22 -11 17 -13 -4 -30 -7 -38 -7 -11 0 -10 -4 4
-13 21 -16 13 -37 -15 -37 -30 0 -50 -11 -43 -24 11 -17 11 -79 0 -94 -6 -7
-18 -10 -28 -7 -13 4 -19 1 -19 -9 0 -22 11 -46 22 -46 5 0 7 4 3 9 -7 12 26
31 55 31 12 0 25 -10 32 -24 21 -47 -12 -78 -64 -58 -24 9 -30 8 -38 -9 -10
-17 -7 -19 29 -19 38 0 71 -19 71 -41 0 -41 -40 -60 -80 -39 -22 12 -41 -7
-20 -20 8 -5 3 -10 -14 -14 -14 -3 -26 -11 -26 -16 0 -6 -12 -15 -27 -21 -26
-10 -27 -12 -10 -23 21 -16 22 -26 2 -26 -27 0 -15 -18 15 -22 36 -5 44 0 28
19 -8 10 -8 17 0 25 9 9 25 5 64 -14 l52 -26 17 21 c14 19 20 20 43 9 29 -13
33 -29 12 -58 -13 -16 -18 -17 -35 -6 -24 14 -27 5 -6 -22 8 -11 15 -28 15
-38 0 -23 35 -58 58 -58 16 -1 16 -1 0 -14 -21 -16 -23 -26 -5 -26 23 0 79
-61 74 -81 -8 -29 10 -23 49 16 41 42 51 45 27 9 -17 -26 -17 -27 18 -55 76
-62 90 -79 87 -102 -3 -19 -8 -22 -41 -20 -20 1 -37 -2 -37 -7 0 -6 4 -10 9
-10 5 0 12 -12 15 -26 7 -25 8 -26 26 -9 11 10 17 22 14 26 -11 18 27 21 46 4
19 -18 20 -17 21 6 1 13 1 32 0 42 -2 11 5 17 16 17 11 0 31 6 46 13 25 11 27
16 25 75 -1 59 0 65 28 87 31 26 49 31 59 15 4 -6 12 -6 23 1 14 9 29 6 67
-12 28 -13 53 -28 58 -33 5 -8 9 -8 15 0 4 6 39 35 77 64 39 29 72 56 73 61 2
5 10 9 18 9 7 0 37 22 66 50 29 27 58 50 63 50 16 0 97 79 91 89 -3 5 4 12 17
15 l22 6 -25 19 c-23 19 -25 19 -31 3 -11 -28 -30 -39 -83 -47 -62 -9 -76 -14
-76 -30 0 -16 -29 -41 -60 -50 -49 -14 -90 -38 -90 -51 0 -17 -17 -19 -22 -2
-2 6 -12 9 -21 5 -19 -7 -23 -27 -6 -27 6 0 22 -9 36 -20 24 -19 24 -20 5 -20
-11 0 -27 6 -34 13 -35 35 -55 38 -149 23 -50 -8 -97 -12 -104 -10 -7 3 -21
-5 -30 -18 -17 -22 -16 -16 1 27 5 11 -1 15 -19 15 -20 0 -24 -4 -20 -20 4
-15 0 -20 -16 -20 -23 0 -28 19 -10 37 8 8 3 16 -20 27 -17 9 -38 30 -46 46
-16 31 -16 31 10 24 20 -5 25 -3 25 12 0 13 -17 26 -50 41 -48 21 -50 24 -50
60 1 39 18 73 39 73 6 0 11 9 11 19 0 11 4 22 9 25 5 3 7 15 4 25 -6 24 26 44
48 30 11 -7 10 -10 -8 -15 -36 -10 -27 -18 36 -35 l60 -15 40 26 c23 16 62 30
92 34 l52 7 -34 23 c-24 17 -43 22 -66 19 -22 -4 -33 -1 -33 7 0 8 -10 9 -30
5 -16 -4 -30 -3 -30 2 0 12 96 37 109 29 6 -4 26 0 45 8 52 22 177 21 222 -1
11 -5 24 -9 29 -8 6 1 41 5 78 9 54 7 67 12 63 23 -3 8 -6 19 -6 25 0 5 -7 2
-16 -6 -19 -20 -38 -20 -54 -1 -9 11 -16 12 -31 2 -15 -9 -22 -8 -35 5 -9 9
-14 24 -11 32 8 21 44 20 56 -1 9 -17 10 -17 28 0 17 15 21 15 41 1 22 -15 42
-12 42 7 0 5 -11 9 -24 9 -14 0 -28 5 -32 11 -3 6 -18 9 -32 6 -14 -3 -36 2
-48 10 -17 11 -27 12 -43 3 -22 -11 -27 -25 -12 -34 5 -3 7 -15 4 -26 -4 -14
-14 -20 -34 -20 -24 0 -29 4 -29 25 0 16 6 25 15 25 8 0 15 9 15 20 0 11 -5
20 -11 20 -7 0 -17 7 -23 15 -9 13 -16 13 -43 3 -26 -10 -37 -9 -58 2 -19 10
-28 11 -37 2 -19 -19 -49 -14 -74 14 -14 15 -24 20 -25 12z m214 -98 c14 -12
-12 -50 -34 -50 -24 0 -42 39 -26 58 10 12 43 8 60 -8z m-95 -21 c4 -31 -19
-44 -49 -29 -19 11 -26 40 -12 54 4 4 19 6 33 4 19 -2 26 -10 28 -29z m-97 -5
c11 -14 10 -18 -6 -30 -10 -8 -24 -14 -31 -14 -15 0 -28 35 -19 50 9 15 41 12
56 -6z m-84 -30 c4 -11 -1 -22 -12 -31 -16 -11 -21 -11 -33 1 -8 8 -12 22 -9
30 8 21 46 21 54 0z m-423 -20 c19 -18 19 -16 6 -48 -7 -20 -17 -26 -39 -26
-36 0 -51 18 -48 58 2 29 5 32 34 32 17 0 39 -7 47 -16z m336 -9 c13 -16 6
-35 -15 -35 -18 0 -28 17 -21 35 7 19 20 19 36 0z m-62 -52 c-5 -26 -38 -29
-38 -4 0 15 6 21 21 21 14 0 19 -5 17 -17z m-55 -39 c9 -10 -4 -34 -19 -34 -8
0 -14 2 -14 4 0 2 -3 11 -6 20 -4 11 0 16 13 16 11 0 22 -3 26 -6z m247 -14
c0 -5 -7 -10 -15 -10 -8 0 -15 5 -15 10 0 6 7 10 15 10 8 0 15 -4 15 -10z
m-292 -48 c2 -7 -3 -12 -12 -12 -9 0 -16 7 -16 16 0 17 22 14 28 -4z m-33 -50
c0 -18 -20 -15 -23 4 -3 10 1 15 10 12 7 -3 13 -10 13 -16z m-5 -58 c0 -9 -5
-14 -12 -12 -18 6 -21 28 -4 28 9 0 16 -7 16 -16z m-176 -50 c23 -22 20 -41
-10 -61 -25 -16 -27 -16 -40 2 -17 23 -18 47 -2 63 16 16 33 15 52 -4z m186 1
c0 -8 -4 -15 -10 -15 -5 0 -10 7 -10 15 0 8 5 15 10 15 6 0 10 -7 10 -15z m20
-45 c0 -5 -4 -10 -10 -10 -5 0 -10 5 -10 10 0 6 5 10 10 10 6 0 10 -4 10 -10z
m30 -30 c0 -5 -4 -10 -10 -10 -5 0 -10 5 -10 10 0 6 5 10 10 10 6 0 10 -4 10
-10z m-110 -65 c17 -20 5 -45 -20 -45 -11 0 -23 7 -26 15 -6 15 11 45 26 45 4
0 13 -7 20 -15z m80 -46 c0 -12 -7 -19 -20 -19 -22 0 -29 35 -7 43 18 6 27 -2
27 -24z m80 -4 c0 -21 -30 -31 -40 -14 -11 17 -3 29 21 29 10 0 19 -7 19 -15z
m70 1 c0 -8 -5 -18 -11 -22 -14 -8 -33 11 -25 25 10 16 36 13 36 -3z m475 -46
c3 -5 1 -10 -4 -10 -6 0 -11 5 -11 10 0 6 2 10 4 10 3 0 8 -4 11 -10z"/>
<path d="M4833 6038 c-23 -11 -29 -28 -16 -41 7 -8 53 31 53 45 0 10 -9 9 -37
-4z"/>
<path d="M5280 6025 c0 -8 7 -15 15 -15 8 0 15 7 15 15 0 8 -7 15 -15 15 -8 0
-15 -7 -15 -15z"/>
<path d="M7800 6020 c0 -5 5 -10 10 -10 6 0 10 5 10 10 0 6 -4 10 -10 10 -5 0
-10 -4 -10 -10z"/>
<path d="M7481 6005 c33 -18 56 -52 64 -98 7 -36 7 -36 31 -19 28 20 28 57 0
57 -10 0 -24 9 -30 19 -20 35 -46 56 -68 56 -22 -1 -22 -1 3 -15z"/>
<path d="M7830 6001 c0 -12 5 -21 10 -21 6 0 10 6 10 14 0 8 -4 18 -10 21 -5
3 -10 -3 -10 -14z"/>
<path d="M4968 5956 c-35 -43 -35 -52 -2 -59 27 -5 29 -3 39 56 7 46 -2 47
-37 3z"/>
<path d="M7450 5971 c0 -6 5 -13 10 -16 6 -3 10 1 10 9 0 9 -4 16 -10 16 -5 0
-10 -4 -10 -9z"/>
<path d="M7680 5961 c-5 -11 -19 -23 -30 -26 -15 -5 -19 -12 -15 -25 4 -12 -1
-22 -12 -29 -10 -6 -12 -11 -5 -11 6 0 12 -5 12 -11 0 -6 -8 -8 -18 -5 -12 4
-26 -1 -37 -14 -10 -11 -13 -20 -7 -20 6 0 14 5 17 10 9 14 35 12 35 -3 0 -7
9 -19 20 -27 11 -8 20 -19 20 -25 1 -16 48 -46 78 -48 22 -2 26 2 24 18 -2 11
-4 33 -6 48 -4 36 -23 57 -32 34 -12 -32 -24 -17 -21 29 2 27 -2 49 -10 56
-29 24 -7 57 25 37 11 -7 28 -9 38 -5 18 7 17 9 -6 21 -35 20 -58 18 -70 -4z
m46 -199 c-8 -9 -19 -13 -22 -9 -10 9 16 38 28 31 6 -4 4 -13 -6 -22z"/>
<path d="M2950 5950 c0 -5 5 -10 10 -10 6 0 10 5 10 10 0 6 -4 10 -10 10 -5 0
-10 -4 -10 -10z"/>
<path d="M3040 5949 c0 -5 5 -7 10 -4 6 3 10 8 10 11 0 2 -4 4 -10 4 -5 0 -10
-5 -10 -11z"/>
<path d="M4140 5950 c0 -5 5 -10 11 -10 5 0 7 5 4 10 -3 6 -8 10 -11 10 -2 0
-4 -4 -4 -10z"/>
<path d="M4258 5934 c6 -3 12 -15 12 -26 0 -17 3 -18 15 -8 12 10 18 10 29 0
10 -8 21 -8 32 -2 14 8 14 11 3 18 -8 5 -23 10 -34 11 -11 0 -31 4 -45 7 -14
4 -19 4 -12 0z"/>
<path d="M4404 5915 c-4 -8 -13 -15 -21 -15 -8 0 -11 -4 -8 -10 3 -5 15 -10
26 -10 10 0 19 -4 19 -9 0 -5 9 -7 20 -4 15 4 20 0 20 -16 0 -22 -24 -29 -35
-11 -4 6 -11 8 -16 4 -5 -3 -16 -1 -23 5 -8 7 -18 11 -22 10 -5 -1 -16 0 -24
4 -8 3 -42 10 -75 15 -47 8 -63 7 -74 -3 -12 -12 -10 -15 14 -21 15 -4 36 -7
46 -8 9 -1 30 -12 46 -26 33 -29 70 -50 89 -50 24 0 15 -27 -18 -55 -18 -14
-41 -33 -51 -41 -10 -8 -38 -15 -62 -16 -25 -1 -45 -5 -45 -8 0 -10 40 -40 54
-40 20 0 86 29 86 38 0 4 19 17 43 30 45 24 93 84 82 102 -4 6 -4 18 -1 27 6
14 8 14 20 -2 10 -14 15 -15 21 -5 4 7 2 16 -5 20 -9 5 -9 9 -1 14 18 11 13
26 -9 26 -11 0 -20 6 -20 14 0 7 -15 18 -32 24 -18 5 -25 10 -15 11 24 1 21
21 -3 21 -11 0 -23 -7 -26 -15z"/>
<path d="M3723 5853 c9 -2 25 -2 35 0 9 3 1 5 -18 5 -19 0 -27 -2 -17 -5z"/>
<path d="M2837 5843 c-14 -13 -6 -23 19 -23 22 0 25 2 14 15 -14 16 -23 19
-33 8z"/>
<path d="M2760 5822 c0 -4 10 -9 22 -9 18 -2 20 0 8 7 -18 12 -30 13 -30 2z"/>
<path d="M3948 5803 c7 -3 16 -2 19 1 4 3 -2 6 -13 5 -11 0 -14 -3 -6 -6z"/>
<path d="M7967 5804 c-4 -4 -21 -8 -38 -9 -42 -4 -80 -25 -77 -44 1 -9 -1 -21
-5 -27 -4 -8 3 -14 20 -18 34 -9 48 6 32 33 -11 16 -11 23 -1 33 9 9 16 7 33
-8 21 -19 21 -19 40 5 10 13 19 27 19 32 0 10 -14 12 -23 3z"/>
<path d="M3878 5783 c7 -3 16 -2 19 1 4 3 -2 6 -13 5 -11 0 -14 -3 -6 -6z"/>
<path d="M2714 5756 c-8 -21 3 -66 17 -66 6 0 9 14 6 36 -6 42 -14 53 -23 30z"/>
<path d="M4300 5748 c-14 -6 -20 -12 -13 -15 6 -2 24 3 40 11 32 17 11 20 -27
4z"/>
<path d="M4250 5684 c0 -14 3 -14 15 -4 8 7 15 14 15 16 0 2 -7 4 -15 4 -8 0
-15 -7 -15 -16z"/>
<path d="M7474 5664 l-22 -22 36 5 c24 4 33 3 28 -5 -3 -6 -2 -13 4 -17 16
-10 11 18 -8 41 l-17 20 -21 -22z"/>
<path d="M3458 5653 c-38 -6 -37 -38 1 -51 20 -7 32 -7 40 1 15 15 14 57 -1
56 -7 -1 -25 -4 -40 -6z"/>
<path d="M2768 5633 c7 -3 16 -2 19 1 4 3 -2 6 -13 5 -11 0 -14 -3 -6 -6z"/>
<path d="M7385 5610 c-7 -12 22 -12 50 0 17 7 15 9 -12 9 -17 1 -35 -3 -38 -9z"/>
<path d="M4860 5580 c0 -5 5 -10 10 -10 6 0 10 5 10 10 0 6 -4 10 -10 10 -5 0
-10 -4 -10 -10z"/>
<path d="M7393 5584 c-8 -4 -8 -12 2 -31 7 -14 11 -31 9 -38 -8 -20 14 -28 36
-12 17 12 18 16 6 20 -8 3 -16 18 -18 33 -3 28 -14 36 -35 28z"/>
<path d="M4892 5558 c-7 -7 -12 -8 -12 -4 0 4 -26 -17 -58 -48 -39 -38 -63
-71 -75 -103 -19 -54 -22 -92 -4 -53 18 38 48 69 63 63 7 -2 20 11 30 32 11
24 22 34 31 31 8 -4 17 -6 19 -6 3 0 9 -11 14 -24 5 -14 19 -30 31 -36 20 -11
21 -11 15 16 -4 16 -14 34 -22 40 -7 6 -14 16 -14 23 0 6 -5 11 -11 11 -6 0
-9 10 -7 23 2 17 9 22 31 22 15 -1 27 3 27 7 0 4 -4 8 -9 8 -5 0 -15 2 -23 5
-7 3 -19 0 -26 -7z"/>
<path d="M5292 5561 c-7 -4 -24 -6 -38 -3 -28 5 -32 -13 -6 -27 17 -9 89 -7
99 3 3 3 3 12 0 21 -7 16 -34 20 -55 6z"/>
<path d="M5517 5550 c-3 -10 1 -24 8 -30 10 -9 16 -6 25 10 6 11 8 25 5 30
-10 17 -32 11 -38 -10z"/>
<path d="M3480 5540 c0 -5 7 -10 15 -10 8 0 15 5 15 10 0 6 -7 10 -15 10 -8 0
-15 -4 -15 -10z"/>
<path d="M3822 5529 c-47 -22 -47 -39 -1 -39 33 0 109 35 109 50 0 17 -63 10
-108 -11z"/>
<path d="M3975 5510 c4 -6 11 -8 16 -5 14 9 11 15 -7 15 -8 0 -12 -5 -9 -10z"/>
<path d="M4790 5509 c0 -5 5 -7 10 -4 6 3 10 8 10 11 0 2 -4 4 -10 4 -5 0 -10
-5 -10 -11z"/>
<path d="M4957 5500 c3 -11 9 -17 14 -14 14 8 10 34 -5 34 -9 0 -12 -7 -9 -20z"/>
<path d="M7441 5481 c-11 -7 -10 -11 7 -20 22 -12 39 0 27 19 -8 12 -16 12
-34 1z"/>
<path d="M5167 5473 c-10 -9 -8 -126 2 -141 7 -12 12 -12 30 -1 24 15 25 22
11 48 -6 12 -6 30 0 52 7 24 6 35 -3 41 -15 10 -32 10 -40 1z"/>
<path d="M2850 5450 c0 -5 5 -10 10 -10 6 0 10 5 10 10 0 6 -4 10 -10 10 -5 0
-10 -4 -10 -10z"/>
<path d="M3475 5450 c-3 -5 -2 -10 4 -10 5 0 13 5 16 10 3 6 2 10 -4 10 -5 0
-13 -4 -16 -10z"/>
<path d="M4850 5414 c0 -14 4 -23 9 -20 5 3 7 15 4 26 -7 28 -13 25 -13 -6z"/>
<path d="M4990 5430 c0 -5 5 -10 10 -10 6 0 10 5 10 10 0 6 -4 10 -10 10 -5 0
-10 -4 -10 -10z"/>
<path d="M2775 5398 c-13 -36 -9 -87 10 -112 11 -15 17 -17 29 -7 19 16 32 -4
16 -24 -14 -17 2 -45 26 -45 16 0 19 21 5 36 -5 5 -11 20 -13 34 -2 20 -8 24
-29 22 -26 -3 -26 -2 -21 46 2 31 0 52 -7 56 -6 4 -13 1 -16 -6z"/>
<path d="M5006 5394 c-4 -11 -14 -14 -30 -10 -21 5 -26 0 -40 -34 -9 -22 -16
-43 -16 -45 0 -3 22 -19 49 -35 57 -35 61 -44 67 -124 5 -62 -14 -103 -44 -91
-9 3 -12 -1 -9 -13 3 -9 8 -35 12 -57 10 -63 36 -148 43 -141 14 15 30 101 20
107 -13 8 -4 77 12 93 14 14 30 -10 30 -47 0 -15 7 -39 16 -52 23 -35 23 -254
-1 -271 -17 -13 -12 -64 8 -64 6 0 1 -10 -11 -23 -26 -28 -20 -37 24 -37 24 0
34 -5 39 -21 10 -29 -10 -47 -33 -31 -40 28 -66 34 -97 22 -16 -7 -40 -14 -52
-17 -13 -3 -23 -9 -23 -15 0 -5 -9 -4 -20 2 -15 8 -21 6 -30 -11 -9 -16 -18
-19 -37 -14 -20 5 -32 0 -54 -21 -16 -15 -29 -23 -29 -17 0 6 7 16 15 23 8 7
15 16 15 19 0 16 -54 71 -69 71 -32 0 -61 30 -61 62 0 26 2 29 15 18 8 -7 15
-19 15 -26 0 -25 18 -15 23 13 6 34 -10 66 -29 59 -8 -3 -14 -1 -14 4 0 6 16
10 35 10 37 0 44 10 20 30 -12 10 -15 9 -15 -5 0 -9 -6 -15 -12 -12 -7 2 -12
14 -11 26 3 26 -25 40 -38 20 -5 -8 -9 -26 -9 -41 0 -29 -13 -37 -26 -16 -7
11 -17 182 -16 264 0 18 12 50 26 73 19 29 26 54 26 90 0 56 -15 75 -30 37 -5
-14 -14 -26 -18 -26 -14 0 -23 -73 -10 -81 16 -10 -18 -150 -47 -193 -23 -34
-24 -37 -8 -64 16 -27 15 -31 -4 -70 -12 -25 -17 -46 -12 -54 6 -9 9 -7 9 9 0
29 18 39 37 21 13 -13 12 -17 -2 -32 -14 -14 -15 -21 -4 -54 15 -43 13 -70 -7
-89 -8 -8 -14 -19 -14 -24 0 -5 -10 -9 -22 -9 -13 0 -31 -7 -41 -14 -15 -12
-15 -15 -2 -26 8 -7 15 -28 15 -46 0 -28 -4 -34 -22 -35 -17 -1 -19 -2 -5 -6
19 -5 22 -18 6 -28 -14 -9 17 -42 61 -65 39 -20 66 -60 57 -83 -3 -9 0 -18 8
-20 32 -13 25 -117 -9 -117 -9 0 -12 -7 -9 -20 5 -20 7 -20 24 -4 24 21 49 71
49 96 0 10 7 18 16 18 18 0 74 -50 74 -66 0 -7 20 -17 44 -23 55 -13 56 -13
56 -1 0 6 -10 10 -21 10 -19 0 -20 2 -8 16 16 20 50 33 67 27 17 -7 15 -23 -3
-23 -8 0 -15 -4 -15 -10 0 -5 14 -10 31 -10 26 0 31 3 26 20 -7 27 10 35 40
19 19 -10 28 -10 43 -1 11 6 26 9 34 6 8 -3 24 4 36 16 18 18 21 29 15 57 -7
40 7 63 40 63 37 0 49 -23 34 -67 -7 -21 -16 -42 -20 -46 -9 -12 23 -99 39
-105 6 -2 12 1 12 7 0 6 -4 11 -8 11 -12 0 -7 119 5 131 8 8 13 8 17 0 9 -14
46 -14 46 0 0 5 -4 8 -9 4 -23 -13 -19 16 3 30 29 19 54 11 35 -11 -9 -11 -8
-14 5 -14 26 0 31 4 28 24 -2 15 3 17 23 14 14 -3 25 -1 25 3 0 5 -5 9 -11 9
-6 0 -9 7 -5 15 4 10 -1 15 -14 15 -26 0 -25 8 5 36 25 23 33 44 16 44 -6 0
-13 -4 -16 -10 -10 -16 -51 -11 -68 8 -22 24 -21 55 2 76 15 13 24 15 46 6 41
-16 43 -4 6 30 -42 39 -40 75 6 106 l33 22 -25 6 c-38 10 -51 46 -30 86 16 32
16 33 -9 59 -32 33 -32 41 -4 77 13 15 17 25 11 21 -6 -4 -24 4 -40 17 -26 22
-27 27 -16 55 10 27 9 31 -6 31 -10 0 -23 11 -29 25 -15 32 -15 55 -1 55 5 0
7 5 4 10 -4 6 -11 8 -16 5 -11 -8 -51 56 -44 73 6 16 -15 15 -38 -2 -16 -13
-16 -15 8 -30 32 -21 32 -44 1 -52 -36 -9 -49 3 -42 38 5 25 2 31 -15 35 -17
5 -20 11 -16 32 4 20 0 30 -15 40 -14 8 -18 19 -14 34 3 12 -1 28 -10 39 -19
20 -11 38 17 38 18 0 23 -10 20 -37 -3 -18 28 -16 35 2 3 8 -4 26 -15 41 -12
15 -21 32 -21 39 0 6 -9 20 -19 29 -11 10 -17 24 -15 30 3 7 -6 20 -20 29 -22
15 -25 15 -30 1z m32 -43 c-2 -9 -13 -17 -26 -19 -22 -3 -27 4 -16 31 7 20 46
9 42 -12z m28 -42 c8 -14 -21 -43 -35 -35 -6 4 -11 16 -11 27 0 21 34 27 46 8z
m129 -364 c0 -25 -4 -30 -25 -30 -16 0 -26 6 -28 18 -6 30 6 49 30 45 18 -2
23 -9 23 -33z m24 -77 c11 -29 -3 -48 -35 -48 -31 0 -44 38 -18 57 26 19 43
16 53 -9z m0 -96 c18 -34 -24 -57 -49 -27 -10 12 -10 18 0 30 17 20 37 19 49
-3z m6 -93 c4 -13 1 -27 -10 -39 -9 -10 -15 -26 -13 -35 2 -10 -5 -22 -14 -29
-14 -8 -21 -7 -35 7 -14 14 -15 19 -5 26 9 5 11 17 7 34 -10 40 0 57 34 57 21
0 32 -6 36 -21z m-517 -171 c-3 -7 -9 -13 -15 -15 -15 -5 -55 35 -48 47 8 13
67 -18 63 -32z m499 -24 c-3 -3 -12 -4 -19 -1 -8 3 -5 6 6 6 11 1 17 -2 13 -5z
m-69 -21 c-2 -10 -10 -18 -18 -18 -8 0 -16 8 -18 18 -2 12 3 17 18 17 15 0 20
-5 18 -17z m-420 -16 c2 -12 -3 -17 -17 -17 -15 0 -21 6 -21 21 0 25 33 22 38
-4z m382 -42 c0 -8 -6 -15 -14 -15 -8 0 -16 7 -20 15 -4 10 1 15 14 15 11 0
20 -7 20 -15z m-308 -17 c-7 -7 -12 -8 -12 -2 0 6 3 14 7 17 3 4 9 5 12 2 2
-3 -1 -11 -7 -17z m-52 -7 c0 -22 -23 -34 -38 -19 -15 15 -3 38 19 38 12 0 19
-7 19 -19z m112 -6 c0 -5 -5 -11 -11 -13 -6 -2 -11 4 -11 13 0 9 5 15 11 13 6
-2 11 -8 11 -13z m193 -15 c-5 -8 -11 -8 -17 -2 -6 6 -7 16 -3 22 5 8 11 8 17
2 6 -6 7 -16 3 -22z m-150 2 c0 -18 -20 -15 -23 4 -3 10 1 15 10 12 7 -3 13
-10 13 -16z m53 -14 c-6 -18 -28 -21 -28 -4 0 9 7 16 16 16 9 0 14 -5 12 -12z
m50 1 c-2 -6 -8 -10 -13 -10 -5 0 -11 4 -13 10 -2 6 4 11 13 11 9 0 15 -5 13
-11z m-228 -20 c13 -24 -2 -49 -30 -49 -28 0 -32 28 -8 50 27 24 25 24 38 -1z
m522 -36 c26 -24 22 -50 -11 -67 -26 -14 -30 -14 -45 3 -21 23 -20 57 2 70 24
14 33 13 54 -6z m-477 -53 c0 -18 -6 -26 -23 -28 -27 -4 -40 22 -22 44 19 22
45 13 45 -16z m75 -55 c0 -31 -26 -43 -47 -22 -21 21 -9 47 22 47 20 0 25 -5
25 -25z m198 -7 c7 -7 12 -22 12 -35 0 -27 -42 -42 -65 -23 -28 23 -11 70 25
70 9 0 21 -5 28 -12z m-103 -28 c0 -30 -35 -40 -54 -16 -20 24 -6 48 26 44 22
-2 28 -8 28 -28z"/>
<path d="M5259 5353 c-1 -5 -1 -11 0 -15 0 -4 -15 -14 -34 -22 -39 -17 -43
-27 -19 -47 14 -11 18 -10 29 5 8 10 19 15 25 11 6 -4 17 -2 24 5 11 8 12 17
3 40 -11 28 -25 40 -28 23z"/>
<path d="M7140 5275 c0 -8 5 -15 10 -15 6 0 10 7 10 15 0 8 -4 15 -10 15 -5 0
-10 -7 -10 -15z"/>
<path d="M5252 5238 c-16 -16 -15 -23 4 -42 17 -18 69 -22 79 -6 7 11 -26 46
-52 54 -10 3 -24 1 -31 -6z"/>
<path d="M3170 5210 c0 -5 7 -10 16 -10 8 0 12 -4 9 -10 -3 -5 -2 -10 3 -10 6
0 13 8 16 17 4 10 4 14 0 11 -4 -4 -15 -3 -25 3 -13 6 -19 6 -19 -1z"/>
<path d="M5575 5170 c-3 -5 -2 -10 4 -10 5 0 13 5 16 10 3 6 2 10 -4 10 -5 0
-13 -4 -16 -10z"/>
<path d="M3116 5145 c-11 -8 -15 -15 -9 -15 6 0 16 7 23 15 16 19 11 19 -14 0z"/>
<path d="M5620 5145 c-8 -9 -8 -15 -2 -15 12 0 26 19 19 26 -2 2 -10 -2 -17
-11z"/>
<path d="M3314 5099 c-3 -6 -2 -15 4 -21 13 -13 32 -2 32 18 0 16 -26 19 -36
3z"/>
<path d="M4755 5076 c-23 -34 -22 -127 0 -104 8 8 27 119 21 125 -2 3 -12 -7
-21 -21z"/>
<path d="M6800 5086 c0 -9 5 -16 10 -16 6 0 10 4 10 9 0 6 -4 13 -10 16 -5 3
-10 -1 -10 -9z"/>
<path d="M5646 5057 c-7 -28 -5 -29 33 -16 34 12 31 26 -6 33 -15 3 -23 -2
-27 -17z"/>
<path d="M6300 5070 c0 -5 7 -10 16 -10 8 0 12 5 9 10 -3 6 -10 10 -16 10 -5
0 -9 -4 -9 -10z"/>
<path d="M3041 4984 c0 -11 3 -14 6 -6 3 7 2 16 -1 19 -3 4 -6 -2 -5 -13z"/>
<path d="M5630 4991 c0 -5 16 -21 36 -36 29 -22 38 -25 45 -14 11 19 -28 59
-58 59 -13 0 -23 -4 -23 -9z"/>
<path d="M5725 4910 c3 -5 8 -10 11 -10 2 0 4 5 4 10 0 6 -5 10 -11 10 -5 0
-7 -4 -4 -10z"/>
<path d="M3374 4898 c-3 -5 -9 -6 -14 -3 -4 3 -29 -3 -54 -12 -35 -13 -46 -23
-47 -40 -1 -13 -2 -29 -3 -35 -1 -8 12 -13 32 -13 36 0 49 18 16 23 l-22 3 23
25 c26 28 37 30 71 7 25 -16 25 -16 18 11 -6 25 -5 27 20 20 20 -5 26 -2 26
10 0 12 -8 16 -31 14 -17 -1 -33 -6 -35 -10z"/>
<path d="M6010 4881 c0 -13 25 -20 39 -11 10 5 8 9 -4 14 -23 8 -35 8 -35 -3z"/>
<path d="M4660 4869 c0 -5 5 -7 10 -4 6 3 10 8 10 11 0 2 -4 4 -10 4 -5 0 -10
-5 -10 -11z"/>
<path d="M4726 4842 c-4 -12 -12 -22 -17 -22 -5 0 -9 -4 -9 -10 0 -5 7 -7 15
-4 9 4 15 0 15 -7 1 -10 4 -9 10 3 6 9 6 26 1 39 l-8 24 -7 -23z"/>
<path d="M3112 4842 c-9 -2 -3 -9 13 -18 34 -17 35 -17 35 0 0 15 -27 25 -48
18z"/>
<path d="M5946 4831 c-11 -17 157 -81 172 -67 3 4 15 0 27 -8 29 -19 110 -16
110 4 0 9 -6 13 -15 11 -40 -11 -99 3 -171 40 -56 28 -112 38 -123 20z"/>
<path d="M6254 4825 c25 -19 36 -19 36 0 0 10 -10 15 -27 15 -27 -1 -27 -1 -9
-15z"/>
<path d="M6545 4820 c-3 -5 1 -10 9 -10 9 0 16 5 16 10 0 6 -4 10 -9 10 -6 0
-13 -4 -16 -10z"/>
<path d="M2800 4768 c0 -7 4 -19 9 -27 11 -17 23 1 15 23 -7 19 -24 21 -24 4z"/>
<path d="M6428 4773 c6 -2 18 -2 25 0 6 3 1 5 -13 5 -14 0 -19 -2 -12 -5z"/>
<path d="M6478 4773 c6 -2 18 -2 25 0 6 3 1 5 -13 5 -14 0 -19 -2 -12 -5z"/>
<path d="M6275 4750 c3 -5 8 -10 11 -10 2 0 4 5 4 10 0 6 -5 10 -11 10 -5 0
-7 -4 -4 -10z"/>
<path d="M4535 4710 c4 -6 11 -8 16 -5 14 9 11 15 -7 15 -8 0 -12 -5 -9 -10z"/>
<path d="M2785 4659 c-4 -17 -5 -32 -3 -34 1 -2 18 5 37 14 31 16 32 19 16 34
-25 25 -43 21 -50 -14z"/>
<path d="M5455 4480 c-15 -17 -16 -20 -3 -20 19 0 42 26 30 34 -5 3 -17 -3
-27 -14z"/>
<path d="M5402 4413 c-14 -29 -8 -56 11 -59 12 -1 17 3 15 14 -1 9 1 23 5 30
9 13 1 32 -13 32 -5 0 -13 -8 -18 -17z"/>
<path d="M4465 4350 c-3 -5 -1 -10 4 -10 6 0 11 5 11 10 0 6 -2 10 -4 10 -3 0
-8 -4 -11 -10z"/>
<path d="M4390 4320 c0 -5 5 -10 10 -10 6 0 10 5 10 10 0 6 -4 10 -10 10 -5 0
-10 -4 -10 -10z"/>
<path d="M4445 4320 c-3 -5 -1 -10 4 -10 6 0 11 5 11 10 0 6 -2 10 -4 10 -3 0
-8 -4 -11 -10z"/>
<path d="M4514 4229 c-3 -6 -1 -16 5 -22 9 -9 14 -8 21 3 5 8 10 18 10 23 0
11 -28 8 -36 -4z"/>
<path d="M4550 4176 c0 -11 33 -66 40 -66 7 0 20 23 20 35 0 2 -13 10 -30 19
-16 8 -30 13 -30 12z"/>
<path d="M4242 4110 c0 -19 2 -27 5 -17 2 9 2 25 0 35 -3 9 -5 1 -5 -18z"/>
<path d="M5153 4125 c-15 -17 -17 -45 -3 -45 6 0 10 8 10 18 0 10 5 23 12 30
7 7 8 12 3 12 -6 -1 -16 -7 -22 -15z"/>
<path d="M4490 4010 c-39 -20 -46 -43 -14 -48 16 -2 20 -8 17 -23 -4 -14 0
-19 16 -19 22 0 30 25 9 32 -7 3 -9 14 -4 31 6 27 7 27 36 12 38 -20 42 -19
38 8 -4 29 -49 32 -98 7z"/>
<path d="M4762 4009 c-11 -27 -4 -119 8 -119 26 0 33 69 12 120 l-10 25 -10
-26z"/>
<path d="M5250 3980 c0 -5 5 -10 10 -10 6 0 10 5 10 10 0 6 -4 10 -10 10 -5 0
-10 -4 -10 -10z"/>
<path d="M4305 3970 c-6 -10 -5 -11 15 -14 6 0 15 -8 20 -16 8 -12 11 -13 22
-2 11 11 9 16 -6 28 -23 16 -42 18 -51 4z"/>
<path d="M4813 3896 c-13 -6 -23 -20 -23 -31 1 -19 1 -19 14 -2 7 9 21 17 30
17 9 0 16 4 16 9 0 16 -13 18 -37 7z"/>
<path d="M4827 3843 c-12 -12 -7 -31 9 -37 24 -9 35 3 21 24 -13 21 -20 24
-30 13z"/>
<path d="M1443 2815 c-15 -41 41 -191 85 -226 67 -52 135 3 118 95 -14 75
-182 183 -203 131z"/>
<path d="M4235 2920 c3 -5 8 -10 11 -10 2 0 4 5 4 10 0 6 -5 10 -11 10 -5 0
-7 -4 -4 -10z"/>
<path d="M4235 2860 c-3 -5 -1 -10 4 -10 6 0 11 5 11 10 0 6 -2 10 -4 10 -3 0
-8 -4 -11 -10z"/>
<path d="M3855 2626 c-2 -6 -5 -19 -7 -29 -2 -10 -7 -18 -13 -18 -18 -1 -35
-21 -35 -40 0 -11 -4 -19 -10 -19 -5 0 -10 -11 -10 -25 0 -14 -5 -25 -10 -25
-19 0 -60 -52 -60 -76 0 -23 -42 -154 -60 -186 -14 -26 -12 -88 3 -88 6 0 4
-5 -6 -11 -12 -7 -16 -17 -12 -30 4 -12 1 -21 -9 -25 -27 -10 -6 -25 33 -24
58 3 61 1 61 -28 0 -48 24 -60 114 -57 61 2 91 9 130 28 217 107 206 105 226
40 8 -27 13 -56 11 -66 -2 -15 2 -17 18 -12 15 4 21 2 21 -8 0 -8 8 -17 18
-19 15 -4 18 -12 14 -37 -2 -18 0 -31 7 -31 6 0 8 -6 5 -14 -3 -9 3 -17 16
-21 12 -4 25 -18 30 -31 12 -30 30 -31 30 -1 0 42 49 64 78 35 10 -10 11 -3 7
30 -5 36 -2 43 20 58 14 9 25 22 25 28 0 20 -201 284 -280 368 -14 14 -34 37
-45 50 -12 12 -76 84 -144 158 -115 126 -156 157 -166 126z m473 -684 c2 -12
-1 -22 -6 -22 -6 0 -17 -3 -26 -6 -12 -5 -16 0 -16 18 0 14 3 28 7 32 14 13
38 1 41 -22z"/>
<path d="M4690 2540 c0 -5 7 -10 16 -10 8 0 12 5 9 10 -3 6 -10 10 -16 10 -5
0 -9 -4 -9 -10z"/>
<path d="M4730 2420 c0 -5 7 -10 16 -10 8 0 12 5 9 10 -3 6 -10 10 -16 10 -5
0 -9 -4 -9 -10z"/>
<path d="M4910 2411 c0 -6 5 -13 10 -16 6 -3 10 1 10 9 0 9 -4 16 -10 16 -5 0
-10 -4 -10 -9z"/>
<path d="M4490 2374 c0 -16 5 -24 13 -22 18 7 20 35 2 41 -11 5 -15 0 -15 -19z"/>
<path d="M4666 2356 c3 -9 11 -16 16 -16 13 0 5 23 -10 28 -7 2 -10 -2 -6 -12z"/>
<path d="M5450 2325 c-7 -8 -26 -15 -42 -15 -16 0 -55 -14 -86 -32 -31 -17
-70 -39 -87 -47 l-30 -16 27 -3 c15 -2 38 4 50 12 26 18 38 20 38 6 0 -5 -7
-10 -15 -10 -8 0 -15 -4 -15 -10 0 -14 23 -13 38 2 9 9 18 9 37 0 35 -16 37
-15 30 9 -5 14 -2 25 6 30 20 12 23 11 37 -12 10 -16 10 -24 1 -35 -9 -11 -8
-14 3 -14 15 0 52 63 54 92 1 10 -3 18 -9 18 -5 0 -7 9 -4 20 6 24 -15 27 -33
5z m-70 -65 c0 -5 -4 -10 -10 -10 -5 0 -10 5 -10 10 0 6 5 10 10 10 6 0 10 -4
10 -10z"/>
<path d="M5340 2190 c0 -5 7 -10 15 -10 8 0 15 5 15 10 0 6 -7 10 -15 10 -8 0
-15 -4 -15 -10z"/>
<path d="M3600 1995 c0 -8 7 -15 15 -15 9 0 12 6 9 15 -4 8 -10 15 -15 15 -5
0 -9 -7 -9 -15z"/>
<path d="M5510 1978 c-25 -5 -67 -16 -94 -24 -26 -7 -52 -12 -56 -9 -5 3 -11
1 -15 -5 -4 -6 5 -10 19 -10 14 0 26 -4 26 -10 0 -5 10 -10 21 -10 12 0 27 -7
34 -17 8 -11 29 -17 60 -18 44 -2 48 0 60 28 7 17 11 36 8 43 -2 7 1 15 6 19
14 8 4 25 -12 24 -7 -1 -32 -6 -57 -11z"/>
<path d="M3658 1949 c5 -32 16 -38 26 -13 5 13 9 14 21 4 9 -7 18 -10 21 -7
10 9 -5 39 -15 33 -5 -4 -20 -2 -33 3 -23 8 -24 7 -20 -20z"/>
<path d="M5298 1913 c6 -2 18 -2 25 0 6 3 1 5 -13 5 -14 0 -19 -2 -12 -5z"/>
<path d="M3745 1889 c-10 -15 3 -25 16 -12 7 7 7 13 1 17 -6 3 -14 1 -17 -5z"/>
<path d="M4535 1692 c-181 -94 -282 -186 -348 -316 -25 -49 -28 -64 -20 -86 6
-16 6 -36 1 -50 -5 -15 -5 -26 2 -30 6 -4 8 -15 4 -24 -6 -16 -4 -17 16 -6 19
10 26 8 49 -14 15 -14 35 -26 44 -26 9 0 17 -7 17 -15 0 -8 -4 -15 -10 -15 -5
0 -10 -4 -10 -10 0 -18 18 -11 43 16 41 44 85 16 57 -37 -8 -15 -7 -19 5 -19
8 0 15 5 15 11 0 16 62 2 73 -16 9 -18 83 -21 89 -4 4 11 23 13 101 6 40 -3
51 0 63 17 8 11 14 28 14 37 0 9 9 19 20 22 12 3 20 14 20 26 0 17 4 20 23 16
35 -9 57 21 48 67 -9 51 -63 93 -132 101 -84 10 -79 23 17 41 65 12 91 13 101
5 30 -26 13 16 -52 122 -5 9 -20 34 -32 57 -12 22 -28 46 -35 53 -8 8 -28 38
-47 67 -18 28 -36 52 -40 51 -3 0 -47 -21 -96 -47z m1 -177 c13 -20 14 -28 4
-40 -23 -28 -70 -11 -70 25 0 19 19 40 37 40 7 0 20 -11 29 -25z m-115 -155
c21 -12 25 -50 7 -68 -19 -19 -66 -15 -78 7 -14 27 -13 37 6 55 18 19 38 20
65 6z m-113 -113 c4 -20 -25 -34 -39 -20 -14 14 1 45 20 41 9 -2 17 -11 19
-21z m132 -5 c0 -20 -24 -45 -53 -55 -29 -11 -33 22 -6 48 29 29 59 32 59 7z
m-225 -22 c3 -5 1 -10 -4 -10 -6 0 -11 5 -11 10 0 6 2 10 4 10 3 0 8 -4 11
-10z m205 -54 c0 -3 -4 -8 -10 -11 -5 -3 -10 -1 -10 4 0 6 5 11 10 11 6 0 10
-2 10 -4z m35 -56 c3 -5 -1 -10 -9 -10 -9 0 -16 5 -16 10 0 6 4 10 9 10 6 0
13 -4 16 -10z"/>
<path d="M4891 1224 c0 -11 3 -14 6 -6 3 7 2 16 -1 19 -3 4 -6 -2 -5 -13z"/>
<path d="M4195 1150 c3 -5 10 -10 16 -10 5 0 9 5 9 10 0 6 -7 10 -16 10 -8 0
-12 -4 -9 -10z"/>
<path d="M5970 1081 c0 -28 11 -52 21 -45 5 3 9 -2 9 -10 0 -9 7 -16 16 -16
11 0 14 5 10 16 -5 14 -4 15 8 4 13 -10 13 -15 -1 -37 -16 -24 -17 -24 -24 -5
-4 11 -13 23 -19 27 -15 9 -5 -86 16 -159 8 -27 14 -66 14 -85 0 -82 29 -108
41 -38 3 20 2 34 -3 31 -4 -3 -8 4 -8 15 0 12 5 21 11 21 7 0 9 12 5 34 -4 19
-2 37 3 41 12 7 2 36 -18 51 -13 10 -13 16 2 47 21 44 21 66 1 74 -11 4 -14
13 -9 30 5 21 4 22 -15 11 -16 -10 -24 -10 -40 0 -17 11 -20 10 -20 -7z"/>
<path d="M2176 1064 c-6 -24 -2 -43 8 -33 11 10 17 59 8 59 -5 0 -13 -12 -16
-26z"/>
<path d="M6101 994 c0 -11 3 -14 6 -6 3 7 2 16 -1 19 -3 4 -6 -2 -5 -13z"/>
<path d="M6067 963 c-4 -3 -7 -12 -7 -20 0 -15 26 -18 34 -4 7 11 -18 33 -27
24z"/>
<path d="M3818 737 c-16 -13 -28 -33 -28 -45 0 -12 -6 -22 -14 -22 -23 0 -40
-30 -42 -73 -2 -45 4 -66 16 -48 4 8 14 6 31 -7 33 -27 75 -25 98 4 10 13 24
24 30 24 6 0 11 6 12 13 0 6 4 3 9 -8 8 -19 9 -19 9 2 1 12 6 25 11 28 13 8
11 125 -3 143 -16 21 -98 14 -129 -11z"/>
<path d="M4175 740 c17 -54 97 -197 118 -212 23 -16 24 -16 19 8 -5 26 7 31
26 12 7 -7 12 -9 12 -5 0 8 -1 10 -48 67 -16 19 -48 61 -71 93 -44 58 -68 74
-56 37z"/>
<path d="M2992 258 c6 -18 28 -21 28 -4 0 9 -7 16 -16 16 -9 0 -14 -5 -12 -12z"/>
<path d="M4205 190 c-4 -6 3 -10 14 -10 25 0 27 6 6 13 -8 4 -17 2 -20 -3z"/>
<path d="M7290 3630 c0 -5 5 -10 11 -10 5 0 7 5 4 10 -3 6 -8 10 -11 10 -2 0
-4 -4 -4 -10z"/>
</g>
</svg>
